<svg width="75" height="120" viewBox="0 0 75 120" fill="none" xmlns="http://www.w3.org/2000/svg">
<path d="M46.917 61.9301C60.7063 52.5315 65.2466 43.8042 65.2466 32.7273C65.2466 16.7832 55.6614 7.38462 39.3498 7.38462C22.7018 7.38462 11.2668 17.1189 11.2668 39.1049H3.53139C3.53139 14.4336 16.9843 0 38.6771 0C59.361 0 73.3184 12.9231 73.3184 32.5594C73.3184 46.8252 66.0874 58.0699 47.2534 70.8252L32.1188 81.0629C18.1614 90.6294 10.426 100.531 8.23991 112.615H75V120H0C0 101.371 9.08072 87.4406 31.7825 72.1678L46.917 61.9301Z" fill="#F5F5F5"/>
</svg>
