<svg width="104" height="167" viewBox="0 0 104 167" fill="none" xmlns="http://www.w3.org/2000/svg">
<path d="M65.0583 86.186C84.1794 73.1063 90.4753 60.9608 90.4753 45.5454C90.4753 23.3566 77.1839 10.2769 54.565 10.2769C31.4798 10.2769 15.6233 23.8238 15.6233 54.421H4.89686C4.89686 20.0867 23.5516 0 53.6323 0C82.3139 0 101.668 17.9846 101.668 45.3119C101.668 65.165 91.6413 80.814 65.5247 98.565L44.5381 112.813C25.1839 126.126 14.4574 139.906 11.426 156.723H104V167H0C0 141.074 12.5919 121.688 44.0717 100.434L65.0583 86.186Z" fill="#F5F5F5"/>
</svg>
