<svg width="120" height="120" viewBox="0 0 120 120" fill="none" xmlns="http://www.w3.org/2000/svg">
<path opacity="0.6" fill-rule="evenodd" clip-rule="evenodd" d="M115.447 82.9673L113.6 82.2012C116.434 75.3653 118 67.868 118 60C118 52.132 116.434 44.6347 113.6 37.7988L115.447 37.0327C118.381 44.1072 120 51.8645 120 60C120 68.1355 118.381 75.8928 115.447 82.9673ZM82.9673 4.55283L82.2012 6.40029C75.3653 3.56556 67.868 2 60 2C52.132 2 44.6347 3.56556 37.7988 6.40028L37.0327 4.55283C44.1072 1.61917 51.8645 0 60 0C68.1355 0 75.8928 1.61917 82.9673 4.55283ZM4.55283 37.0327C1.61917 44.1072 0 51.8645 0 60C0 68.1355 1.61917 75.8928 4.55283 82.9673L6.40028 82.2012C3.56556 75.3653 2 67.868 2 60C2 52.132 3.56556 44.6347 6.40029 37.7988L4.55283 37.0327ZM37.0327 115.447L37.7988 113.6C44.6347 116.434 52.132 118 60 118C67.868 118 75.3653 116.434 82.2012 113.6L82.9673 115.447C75.8928 118.381 68.1355 120 60 120C51.8645 120 44.1072 118.381 37.0327 115.447Z" fill="#E4E8EC"/>
</svg>
