<svg width="82" height="82" viewBox="0 0 82 82" fill="none" xmlns="http://www.w3.org/2000/svg">
<path d="M68.7676 16.0779C63.5115 13.6715 57.9627 11.9643 52.263 11C51.4831 12.3943 50.7773 13.8288 50.1488 15.2976C44.0775 14.3827 37.9034 14.3827 31.832 15.2976C31.2032 13.829 30.4975 12.3945 29.7178 11C24.0144 11.9725 18.462 13.6837 13.2006 16.0904C2.75548 31.5442 -0.0760374 46.6142 1.33972 61.4702C7.45667 65.9897 14.3033 69.4268 21.5819 71.6322C23.2209 69.4279 24.6711 67.0894 25.9173 64.6415C23.5504 63.7575 21.2658 62.6668 19.0902 61.3822C19.6628 60.9669 20.2228 60.539 20.7639 60.1237C27.0946 63.1008 34.0041 64.6445 40.9999 64.6445C47.9956 64.6445 54.9051 63.1008 61.2358 60.1237C61.7832 60.5704 62.3432 60.9983 62.9095 61.3822C60.7297 62.6689 58.441 63.7617 56.0698 64.6478C57.3145 67.0946 58.7648 69.4311 60.4052 71.6322C67.6901 69.4357 74.5419 66.0002 80.66 61.4765C82.3211 44.2483 77.8222 29.3168 68.7676 16.0779ZM27.7106 52.3339C23.7653 52.3339 20.506 48.7536 20.506 44.349C20.506 39.9444 23.6521 36.3327 27.698 36.3327C31.7439 36.3327 34.9782 39.9444 34.9089 44.349C34.8397 48.7536 31.7314 52.3339 27.7106 52.3339ZM54.2891 52.3339C50.3376 52.3339 47.0908 48.7536 47.0908 44.349C47.0908 39.9444 50.2369 36.3327 54.2891 36.3327C58.3413 36.3327 61.5504 39.9444 61.4812 44.349C61.412 48.7536 58.3099 52.3339 54.2891 52.3339Z" fill="#E4E8EC"/>
</svg>
