<svg width="162" height="162" viewBox="0 0 162 162" fill="none" xmlns="http://www.w3.org/2000/svg">
<circle opacity="0.1" cx="81" cy="81" r="75" stroke="#E4E8EC" stroke-width="6"/>
<circle opacity="0.1" cx="81" cy="81" r="45" stroke="#E4E8EC" stroke-width="6"/>
<circle opacity="0.1" cx="81" cy="81" r="15" stroke="#E4E8EC" stroke-width="6"/>
<path d="M73 68.5C73 64.3579 76.3579 61 80.5 61C84.6421 61 88 64.3579 88 68.5C88 70.6668 87.0869 72.6134 85.6114 73.9885C85.3964 74.189 85.1698 74.3982 84.9344 74.6158C83.3324 76.0956 81.3174 77.9572 79.6971 80.0049C77.8017 82.4004 76 85.5801 76 89.5C76 91.9853 78.0147 94 80.5 94C82.9853 94 85 91.9853 85 89.5C85 88.4493 85.4698 87.2137 86.7551 85.5893C87.9064 84.1342 89.3532 82.7931 91.0008 81.2659C91.2453 81.0393 91.4943 80.8085 91.7474 80.5726C94.9731 77.5664 97 73.2664 97 68.5C97 59.3873 89.6127 52 80.5 52C71.3873 52 64 59.3873 64 68.5C64 70.9853 66.0147 73 68.5 73C70.9853 73 73 70.9853 73 68.5Z" fill="#E4E8EC"/>
<path d="M80.5 98.5C77.1863 98.5 74.5 101.186 74.5 104.5C74.5 107.814 77.1863 110.5 80.5 110.5C83.8137 110.5 86.5 107.814 86.5 104.5C86.5 101.186 83.8137 98.5 80.5 98.5Z" fill="#E4E8EC"/>
</svg>
