<?xml version="1.0" encoding="utf-8"?>
<!-- Generator: Adobe Illustrator 26.4.1, SVG Export Plug-In . SVG Version: 6.00 Build 0)  -->
<svg version="1.1" id="图层_1" xmlns="http://www.w3.org/2000/svg" xmlns:xlink="http://www.w3.org/1999/xlink" x="0px" y="0px"
	 viewBox="0 0 379.5 26" style="enable-background:new 0 0 379.5 26;" xml:space="preserve">
<style type="text/css">
	.st0{fill:none;stroke:url(#SVGID_1_);stroke-width:2;stroke-opacity:0.9;}
	.st1{opacity:0.6;fill:#E4E8EC;enable-background:new    ;}
	.st2{opacity:0.8;fill:#E4E8EC;enable-background:new    ;}
	.st3{fill:#E4E8EC;}
</style>
<linearGradient id="SVGID_1_" gradientUnits="userSpaceOnUse" x1="1167.9999" y1="14.9953" x2="-25.9999" y2="14.996" gradientTransform="matrix(1 0 0 -1 0 28)">
	<stop  offset="0" style="stop-color:#E1E3E6;stop-opacity:0"/>
	<stop  offset="0.3444" style="stop-color:#E1E3E6"/>
	<stop  offset="0.6607" style="stop-color:#E1E3E6"/>
	<stop  offset="1" style="stop-color:#E1E3E6;stop-opacity:0"/>
</linearGradient>
<path class="st0" d="M0,1h379l16,24h346l16-24h379"/>
<path class="st1" d="M384,0h6l15,22h-6L384,0z"/>
<path class="st2" d="M395,0h6l15,22h-6L395,0z"/>
<path class="st3" d="M406,0h6l15,22h-6L406,0z"/>
<path class="st1" d="M752,0h-6l-15,22h6L752,0z"/>
<path class="st2" d="M741,0h-6l-15,22h6L741,0z"/>
<path class="st3" d="M730,0h-6l-15,22h6L730,0z"/>
</svg>
