<svg width="100" height="15" viewBox="0 0 100 15" fill="none" xmlns="http://www.w3.org/2000/svg">
<path d="M0 14.98H14V0.98H0V14.98ZM18.228 14V4.2H22.932C24.85 4.2 26.124 5.32 26.124 7.126C26.124 8.848 24.948 10.066 22.932 10.066H19.81V14H18.228ZM22.778 8.652C23.856 8.652 24.5 8.064 24.5 7.098C24.5 6.16 23.856 5.614 22.778 5.614H19.81V8.652H22.778ZM26.7859 8.512C26.7859 7.49 27.3459 6.944 28.3539 6.944H30.6079V8.232H28.2839V14H26.7859V8.512ZM34.4226 14.21C32.2526 14.21 30.8386 12.726 30.8386 10.472C30.8386 8.204 32.2526 6.734 34.4226 6.734C36.6066 6.734 38.0066 8.204 38.0066 10.472C38.0066 12.726 36.6066 14.21 34.4226 14.21ZM34.4226 12.922C35.6546 12.922 36.4526 11.956 36.4526 10.472C36.4526 8.988 35.6546 8.022 34.4226 8.022C33.1906 8.022 32.3786 8.988 32.3786 10.472C32.3786 11.956 33.1906 12.922 34.4226 12.922ZM40.6115 14L38.1335 6.944H39.7295L41.5495 12.376H41.6055L43.4255 6.944H45.0215L42.5435 14H40.6115ZM45.7768 14V6.944H47.2748V14H45.7768ZM46.5328 5.656C46.0008 5.656 45.5948 5.292 45.5948 4.774C45.5948 4.27 46.0008 3.878 46.5328 3.878C47.0648 3.878 47.4708 4.27 47.4708 4.774C47.4708 5.292 47.0648 5.656 46.5328 5.656ZM51.5166 14.21C49.6266 14.21 48.3386 12.768 48.3386 10.472C48.3386 8.176 49.6266 6.734 51.5166 6.734C52.5246 6.734 53.3226 7.14 53.8406 7.896V4.2H55.3526V14H53.9806V12.838C53.4626 13.72 52.6226 14.21 51.5166 14.21ZM51.8386 12.922C53.0566 12.922 53.8686 11.956 53.8686 10.472C53.8686 8.988 53.0566 8.022 51.8386 8.022C50.6486 8.022 49.8786 8.988 49.8786 10.472C49.8786 11.956 50.6486 12.922 51.8386 12.922ZM59.9193 14.21C57.7633 14.21 56.3913 12.74 56.3913 10.472C56.3913 8.232 57.7353 6.734 59.9053 6.734C62.2013 6.734 63.4893 8.414 63.1673 10.892H57.9033C58.0013 12.194 58.7293 12.978 59.9193 12.978C60.9133 12.978 61.4593 12.432 61.6133 11.928H63.0973C62.8033 13.23 61.6693 14.21 59.9193 14.21ZM57.9453 9.8H61.6973C61.7113 8.75 61.0533 7.938 59.8493 7.938C58.8133 7.938 58.0853 8.624 57.9453 9.8ZM67.8159 14V6.944H69.3139V14H67.8159ZM68.5719 5.656C68.0399 5.656 67.6339 5.292 67.6339 4.774C67.6339 4.27 68.0399 3.878 68.5719 3.878C69.1039 3.878 69.5099 4.27 69.5099 4.774C69.5099 5.292 69.1039 5.656 68.5719 5.656ZM73.5557 14.21C71.6657 14.21 70.3777 12.768 70.3777 10.472C70.3777 8.176 71.6657 6.734 73.5557 6.734C74.5637 6.734 75.3617 7.14 75.8797 7.896V4.2H77.3917V14H76.0197V12.838C75.5017 13.72 74.6617 14.21 73.5557 14.21ZM73.8777 12.922C75.0957 12.922 75.9077 11.956 75.9077 10.472C75.9077 8.988 75.0957 8.022 73.8777 8.022C72.6877 8.022 71.9177 8.988 71.9177 10.472C71.9177 11.956 72.6877 12.922 73.8777 12.922ZM81.9584 14.21C79.8024 14.21 78.4304 12.74 78.4304 10.472C78.4304 8.232 79.7744 6.734 81.9444 6.734C84.2404 6.734 85.5284 8.414 85.2064 10.892H79.9424C80.0404 12.194 80.7684 12.978 81.9584 12.978C82.9524 12.978 83.4984 12.432 83.6524 11.928H85.1364C84.8424 13.23 83.7084 14.21 81.9584 14.21ZM79.9844 9.8H83.7364C83.7504 8.75 83.0924 7.938 81.8884 7.938C80.8524 7.938 80.1244 8.624 79.9844 9.8ZM88.3873 14.21C86.8473 14.21 85.9233 13.3 85.9233 12.026C85.9233 10.794 86.7773 9.996 88.4013 9.884L90.1233 9.758C90.4593 9.73 90.6413 9.59 90.6413 9.156C90.6413 8.316 90.0113 7.966 89.1573 7.966C88.1913 7.966 87.6593 8.414 87.5613 9.184H86.1053C86.2873 7.588 87.3513 6.734 89.1713 6.734C91.0333 6.734 92.1533 7.616 92.1533 9.576V12.712H92.7272V14H92.0973C91.3133 14 90.8933 13.566 90.8653 12.726C90.4313 13.72 89.5213 14.21 88.3873 14.21ZM88.6533 12.992C89.8153 12.992 90.6693 12.194 90.6693 11.018V10.752L88.6813 10.892C87.7853 10.962 87.4353 11.34 87.4353 11.942C87.4353 12.642 87.8973 12.992 88.6533 12.992ZM97.3508 9.94C98.7368 10.206 99.5068 10.878 99.5068 12.012C99.5068 13.37 98.3588 14.21 96.5388 14.21C94.5648 14.21 93.3608 13.23 93.3188 11.676H94.7188C94.8167 12.488 95.3908 12.992 96.5248 12.992C97.4208 12.992 97.9948 12.656 97.9948 12.012C97.9948 11.508 97.6448 11.242 96.8608 11.102L95.7968 10.906C94.2848 10.654 93.5008 9.996 93.5008 8.89C93.5008 7.63 94.5228 6.734 96.2868 6.734C98.0368 6.734 99.1708 7.616 99.2688 9.128H97.8408C97.7568 8.386 97.2248 7.924 96.2728 7.924C95.3908 7.924 94.9708 8.302 94.9708 8.834C94.9708 9.296 95.2928 9.576 96.2028 9.73L97.3508 9.94Z" fill="#0057FF"/>
</svg>
