<svg width="16" height="16" viewBox="0 0 16 16" fill="none" xmlns="http://www.w3.org/2000/svg">
<path d="M2.81466 13.1854C3.12391 13.4951 3.49131 13.7406 3.89574 13.9079C4.30017 14.0751 4.73367 14.1608 5.17133 14.1601C5.60908 14.1608 6.04267 14.0751 6.44721 13.9079C6.85175 13.7406 7.21927 13.4951 7.52866 13.1854L9.414 11.2994L8.47133 10.3567L6.58599 12.2427C6.21031 12.6167 5.70178 12.8267 5.17166 12.8267C4.64155 12.8267 4.13301 12.6167 3.75733 12.2427C3.383 11.8672 3.1728 11.3586 3.1728 10.8284C3.1728 10.2982 3.383 9.78957 3.75733 9.41406L5.64333 7.52872L4.70066 6.58606L2.81466 8.47139C2.19053 9.09703 1.84003 9.94467 1.84003 10.8284C1.84003 11.7121 2.19053 12.5598 2.81466 13.1854ZM13.1853 7.52872C13.8091 6.90291 14.1594 6.05534 14.1594 5.17172C14.1594 4.28811 13.8091 3.44053 13.1853 2.81472C12.5597 2.19059 11.712 1.84009 10.8283 1.84009C9.94461 1.84009 9.09697 2.19059 8.47133 2.81472L6.58599 4.70072L7.52866 5.64339L9.414 3.75739C9.78968 3.38338 10.2982 3.17341 10.8283 3.17341C11.3584 3.17341 11.867 3.38338 12.2427 3.75739C12.617 4.1329 12.8272 4.6415 12.8272 5.17172C12.8272 5.70194 12.617 6.21054 12.2427 6.58606L10.3567 8.47139L11.2993 9.41406L13.1853 7.52872Z"/>
<path d="M5.64266 11.3001L4.69933 10.3574L10.3573 4.70006L11.3 5.64339L5.64266 11.3001Z" />
</svg>
