<svg width="12" height="12" viewBox="0 0 12 12" fill="none" xmlns="http://www.w3.org/2000/svg">
<path d="M9.36667 11.52C8.71334 12.1533 8.00001 12.0533 7.31334 11.7533C6.58667 11.4467 5.92001 11.4333 5.15334 11.7533C4.19334 12.1667 3.68667 12.0467 3.11334 11.52C-0.139992 8.16667 0.340008 3.06 4.03334 2.87333C4.93334 2.92 5.56001 3.36667 6.08667 3.40667C6.87334 3.24667 7.62667 2.78667 8.46667 2.84667C9.47334 2.92667 10.2333 3.32667 10.7333 4.04667C8.65334 5.29333 9.14667 8.03333 11.0533 8.8C10.6733 9.8 10.18 10.7933 9.36001 11.5267L9.36667 11.52ZM6.02001 2.83333C5.92001 1.34667 7.12667 0.12 8.51334 0C8.70668 1.72 6.95334 3 6.02001 2.83333Z" />
</svg>
