<svg width="24" height="24" viewBox="0 0 24 24" fill="none" xmlns="http://www.w3.org/2000/svg">
<path d="M16.6274 18.838C15.7292 19.7087 14.7485 19.5712 13.8045 19.1588C12.8054 18.7372 11.8889 18.7188 10.8348 19.1588C9.51501 19.7271 8.81843 19.5621 8.0302 18.838C3.55743 14.2277 4.21735 7.20697 9.29504 6.95033C10.5324 7.01449 11.3939 7.62858 12.118 7.68358C13.1995 7.4636 14.2352 6.83118 15.3901 6.91367C16.7741 7.02366 17.819 7.57359 18.5064 8.56346C15.6467 10.2774 16.325 14.0444 18.9463 15.0985C18.4239 16.4733 17.7456 17.839 16.6183 18.8472L16.6274 18.838ZM12.0264 6.89534C11.8889 4.85143 13.5478 3.16498 15.4543 3C15.7201 5.3647 13.3095 7.12448 12.0264 6.89534Z" fill="#1A1A1A" fill-opacity="0.8"/>
</svg>
