<svg width="352" height="208" viewBox="0 0 352 208" fill="none" xmlns="http://www.w3.org/2000/svg">
<path d="M129 199.5H128.793L128.646 199.646L120.793 207.5H0.5V16.2071L16.2071 0.5H121.793L129.646 8.35355L129.793 8.5H130H224H224.207L224.354 8.35355L232.207 0.5H351.5V72.7032L340.761 78.5611L340.5 78.7032V79V130V130.297L340.761 130.439L351.5 136.297V207.5H231.207L223.354 199.646L223.207 199.5H223H129Z" stroke="#E4E8EC"/>
<path d="M177 196H221L223 198H175L177 196Z" fill="#E4E8EC"/>
<path d="M92 196H126.5L118.5 204H92V196Z" fill="#E4E8EC"/>
<rect width="20" height="8" transform="matrix(-1 0 0 1 90 196)" fill="#E4E8EC"/>
<rect width="20" height="8" transform="matrix(-1 0 0 1 68 196)" fill="#E4E8EC"/>
<rect width="20" height="8" transform="matrix(-1 0 0 1 46 196)" fill="#E4E8EC"/>
<rect width="20" height="8" transform="matrix(-1 0 0 1 24 196)" fill="#E4E8EC"/>
<path d="M260 196H225.5L233.5 204H260V196Z" fill="#E4E8EC"/>
<rect x="262" y="196" width="20" height="8" fill="#E4E8EC"/>
<rect x="284" y="196" width="20" height="8" fill="#E4E8EC"/>
<rect x="306" y="196" width="20" height="8" fill="#E4E8EC"/>
<rect x="328" y="196" width="20" height="8" fill="#E4E8EC"/>
<path d="M348 138L346 137V196H348V138Z" fill="#E4E8EC"/>
<path d="M174 196H131L129 198H172L174 196Z" fill="#D9D9D9"/>
</svg>
