<svg width="448" height="273" viewBox="0 0 448 273" fill="none" xmlns="http://www.w3.org/2000/svg">
<path d="M131 261H193L191 263H129L131 261Z" fill="#E4E8EC"/>
<path d="M255 261H196L194 263H253L255 261Z" fill="#E4E8EC"/>
<path d="M258 261H318L320 263H256L258 261Z" fill="#E4E8EC"/>
<path d="M126.5 261H92V269H118.5L126.5 261Z" fill="#E4E8EC"/>
<path d="M90 261H70V269H90V261Z" fill="#E4E8EC"/>
<path d="M48 261H68V269H48V261Z" fill="#E4E8EC"/>
<path d="M46 261H26V269H46V261Z" fill="#E4E8EC"/>
<path d="M4 261H24V269H4V261Z" fill="#E4E8EC"/>
<path d="M356.5 261H322L330 269H356.5V261Z" fill="#E4E8EC"/>
<path d="M378 261H358V269H378V261Z" fill="#E4E8EC"/>
<path d="M380 261H400V269H380V261Z" fill="#E4E8EC"/>
<path d="M422 261H402V269H422V261Z" fill="#E4E8EC"/>
<path d="M424 261L442 261V202L444 203V269H424V261Z" fill="#E4E8EC"/>
<path fill-rule="evenodd" clip-rule="evenodd" d="M142 8L134 0H16L0 16V273H121L129 265H320L328 273H448V201L437 195V79L448 73V0H314L306 8H142ZM314.414 1L306.414 9H141.586L133.586 1H16.4142L1 16.4142V272H120.586L128.586 264H320.414L328.414 272H447V201.594L436 195.594V78.4064L447 72.4064V1H314.414Z" fill="#E4E8EC"/>
</svg>
