<svg width="352" height="224" viewBox="0 0 352 224" fill="none" xmlns="http://www.w3.org/2000/svg">
<path d="M223 215.5H223.207L223.354 215.646L231.207 223.5H351.5V16.2071L335.793 0.5H230.207L222.354 8.35355L222.207 8.5H222H128H127.793L127.646 8.35355L119.793 0.5H0.5V72.7032L11.2394 78.5611L11.5 78.7032V79V146V146.297L11.2394 146.439L0.5 152.297V223.5H120.793L128.646 215.646L128.793 215.5H129H223Z" stroke="#E4E8EC"/>
<path d="M175 212H131L129 214H177L175 212Z" fill="#E4E8EC"/>
<path d="M260 212H225.5L233.5 220H260V212Z" fill="#E4E8EC"/>
<rect x="262" y="212" width="20" height="8" fill="#E4E8EC"/>
<rect x="284" y="212" width="20" height="8" fill="#E4E8EC"/>
<rect x="306" y="212" width="20" height="8" fill="#E4E8EC"/>
<rect x="328" y="212" width="20" height="8" fill="#E4E8EC"/>
<path d="M92 212H126.5L118.5 220H92V212Z" fill="#E4E8EC"/>
<rect width="20" height="8" transform="matrix(-1 0 0 1 90 212)" fill="#E4E8EC"/>
<rect width="20" height="8" transform="matrix(-1 0 0 1 68 212)" fill="#E4E8EC"/>
<rect width="20" height="8" transform="matrix(-1 0 0 1 46 212)" fill="#E4E8EC"/>
<rect width="20" height="8" transform="matrix(-1 0 0 1 24 212)" fill="#E4E8EC"/>
<path d="M4 154L6 153V212H4V154Z" fill="#E4E8EC"/>
<path d="M178 212H221L223 214H180L178 212Z" fill="#D9D9D9"/>
</svg>
