<svg width="928" height="260" viewBox="0 0 928 260" fill="none" xmlns="http://www.w3.org/2000/svg">
<path d="M311 248H253L255 250H313L311 248Z" fill="#E4E8EC"/>
<path d="M212 248H250L252 250H214L212 248Z" fill="#E4E8EC"/>
<path d="M209 248H153L151 250H211L209 248Z" fill="#E4E8EC"/>
<path d="M315.5 248H350V256H323.5L315.5 248Z" fill="#E4E8EC"/>
<path d="M352 248H372V256H352V248Z" fill="#E4E8EC"/>
<path d="M394 248H374V256H394V248Z" fill="#E4E8EC"/>
<path d="M396 248H416V256H396V248Z" fill="#E4E8EC"/>
<path d="M438 248H418V256H438V248Z" fill="#E4E8EC"/>
<path d="M440 248H460V256H440V248Z" fill="#E4E8EC"/>
<path d="M148.5 248H114V256H140.5L148.5 248Z" fill="#E4E8EC"/>
<path d="M112 248H92V256H112V248Z" fill="#E4E8EC"/>
<path d="M70 248H90V256H70V248Z" fill="#E4E8EC"/>
<path d="M68 248H48V256H68V248Z" fill="#E4E8EC"/>
<path d="M26 248H46V256H26V248Z" fill="#E4E8EC"/>
<path d="M24 248L6 248V189L4 190V256H24V248Z" fill="#E4E8EC"/>
<path fill-rule="evenodd" clip-rule="evenodd" d="M312 8L320 0H448L464 16V260H321L313 252H151L143 260H0V188L11 182V79L0 73V0H142L150 8H312ZM141.586 1L149.586 9H312.414L320.414 1H447.586L463 16.4142V259H321.414L313.414 251H150.586L142.586 259H1V188.594L12 182.594V78.4064L1 72.4064V1H141.586Z" fill="#E4E8EC"/>
</svg>
