<svg width="352" height="208" viewBox="0 0 352 208" fill="none" xmlns="http://www.w3.org/2000/svg">
<path d="M223 199.5H223.207L223.354 199.646L231.207 207.5H351.5V16.2071L335.793 0.5H230.207L222.354 8.35355L222.207 8.5H222H128H127.793L127.646 8.35355L119.793 0.5H0.5V72.7032L11.2394 78.5611L11.5 78.7032V79V130V130.297L11.2394 130.439L0.5 136.297V207.5H120.793L128.646 199.646L128.793 199.5H129H223Z" stroke="#E4E8EC"/>
<path d="M175 196H131L129 198H177L175 196Z" fill="#E4E8EC"/>
<path d="M260 196H225.5L233.5 204H260V196Z" fill="#E4E8EC"/>
<rect x="262" y="196" width="20" height="8" fill="#E4E8EC"/>
<rect x="284" y="196" width="20" height="8" fill="#E4E8EC"/>
<rect x="306" y="196" width="20" height="8" fill="#E4E8EC"/>
<rect x="328" y="196" width="20" height="8" fill="#E4E8EC"/>
<path d="M92 196H126.5L118.5 204H92V196Z" fill="#E4E8EC"/>
<rect width="20" height="8" transform="matrix(-1 0 0 1 90 196)" fill="#E4E8EC"/>
<rect width="20" height="8" transform="matrix(-1 0 0 1 68 196)" fill="#E4E8EC"/>
<rect width="20" height="8" transform="matrix(-1 0 0 1 46 196)" fill="#E4E8EC"/>
<rect width="20" height="8" transform="matrix(-1 0 0 1 24 196)" fill="#E4E8EC"/>
<path d="M4 138L6 137V196H4V138Z" fill="#E4E8EC"/>
<path d="M178 196H221L223 198H180L178 196Z" fill="#D9D9D9"/>
</svg>
