<svg width="656" height="290" viewBox="0 0 656 290" fill="none" xmlns="http://www.w3.org/2000/svg">
<path d="M219 278H277L275 280H217L219 278Z" fill="#E4E8EC"/>
<path d="M378 278H280L278 280H376L378 278Z" fill="#E4E8EC"/>
<path d="M381 278H437L439 280H379L381 278Z" fill="#E4E8EC"/>
<path d="M214.5 278H180V286H206.5L214.5 278Z" fill="#E4E8EC"/>
<path d="M112 278H92V286H112V278Z" fill="#E4E8EC"/>
<path d="M114 278H134V286H114V278Z" fill="#E4E8EC"/>
<path d="M156 278H136V286H156V278Z" fill="#E4E8EC"/>
<path d="M158 278H178V286H158V278Z" fill="#E4E8EC"/>
<path d="M90 278H70V286H90V278Z" fill="#E4E8EC"/>
<path d="M48 278H68V286H48V278Z" fill="#E4E8EC"/>
<path d="M46 278H26V286H46V278Z" fill="#E4E8EC"/>
<path d="M4 278H24V286H4V278Z" fill="#E4E8EC"/>
<path d="M475.5 278H441L449 286H475.5V278Z" fill="#E4E8EC"/>
<path d="M564 278H544V286H564V278Z" fill="#E4E8EC"/>
<path d="M522 278H542V286H522V278Z" fill="#E4E8EC"/>
<path d="M520 278H500V286H520V278Z" fill="#E4E8EC"/>
<path d="M478 278H498V286H478V278Z" fill="#E4E8EC"/>
<path d="M586 278H566V286H586V278Z" fill="#E4E8EC"/>
<path d="M588 278H608V286H588V278Z" fill="#E4E8EC"/>
<path d="M630 278H610V286H630V278Z" fill="#E4E8EC"/>
<path d="M632 278L650 278V219L652 220V286H632V278Z" fill="#E4E8EC"/>
<path fill-rule="evenodd" clip-rule="evenodd" d="M142 8L134 0H16L0 16V290H208L216 282H440L448 290H656V218L645 212V79L656 73V0H522L514 8H142ZM522.414 1L514.414 9H141.586L133.586 1H16.4142L1 16.4142V289H207.586L215.586 281H440.414L448.414 289H655V218.594L644 212.594V78.4064L655 72.4063V1H522.414Z" fill="#E4E8EC"/>
</svg>
