<svg width="16" height="16" viewBox="0 0 16 16" fill="none" xmlns="http://www.w3.org/2000/svg">
<path d="M3 5.39946V3.06216C3 3.00703 3 3 3.06216 3H7.7227C7.79189 3 7.79838 3 7.79838 3.06919V7.72973C7.79838 7.79892 7.79838 7.79892 7.7227 7.79892H3.06216C3.00703 7.79892 3 7.79892 3 7.73622V5.39946ZM5.39946 13H3.06216C3.00703 13 3 13 3 12.9373V8.31892C3 8.24973 3 8.24973 3.06919 8.24973H7.73676C7.79189 8.24973 7.79892 8.24973 7.79892 8.31189V12.9443C7.79892 12.993 7.79892 13 7.73622 13H5.39946ZM13 5.39946V7.72919C13 7.79189 13 7.79189 12.9373 7.79189H8.31189C8.25676 7.79189 8.2427 7.79189 8.2427 7.72973V3.06216C8.2427 3.01351 8.2427 3.00703 8.30486 3.00703H12.8886C13 3.00703 13 3.00703 13 3.11784V5.39946ZM8.26324 10.6216V8.31189C8.26324 8.26324 8.26324 8.24973 8.31892 8.26324H12.9789C12.993 8.26324 12.9789 8.31189 12.9789 8.34V12.9443C12.9803 12.9501 12.9801 12.9561 12.9785 12.9617C12.9769 12.9674 12.9739 12.9726 12.9697 12.9768C12.9656 12.9809 12.9604 12.984 12.9547 12.9856C12.949 12.9872 12.943 12.9873 12.9373 12.9859H8.29189C8.29189 12.9859 8.24324 12.9859 8.25027 12.9373V10.6216H8.26324Z" fill-opacity="0.8"/>
</svg>
