<svg width="24" height="24" viewBox="0 0 24 24" fill="none" xmlns="http://www.w3.org/2000/svg">
<path d="M4.5 8.09919V4.59324C4.5 4.51054 4.5 4.5 4.59324 4.5H11.5841C11.6878 4.5 11.6976 4.5 11.6976 4.60378V11.5946C11.6976 11.6984 11.6976 11.6984 11.5841 11.6984H4.59324C4.51054 11.6984 4.5 11.6984 4.5 11.6043V8.09919ZM8.09919 19.5H4.59324C4.51054 19.5 4.5 19.5 4.5 19.4059V12.4784C4.5 12.3746 4.5 12.3746 4.60378 12.3746H11.6051C11.6878 12.3746 11.6984 12.3746 11.6984 12.4678V19.4165C11.6984 19.4895 11.6984 19.5 11.6043 19.5H8.09919ZM19.5 8.09919V11.5938C19.5 11.6878 19.5 11.6878 19.4059 11.6878H12.4678C12.3851 11.6878 12.3641 11.6878 12.3641 11.5946V4.59324C12.3641 4.52027 12.3641 4.51054 12.4573 4.51054H19.333C19.5 4.51054 19.5 4.51054 19.5 4.67676V8.09919ZM12.3949 15.9324V12.4678C12.3949 12.3949 12.3949 12.3746 12.4784 12.3949H19.4684C19.4895 12.3949 19.4684 12.4678 19.4684 12.51V19.4165C19.4704 19.4251 19.4702 19.4341 19.4678 19.4426C19.4654 19.4511 19.4609 19.4589 19.4546 19.4651C19.4483 19.4714 19.4406 19.4759 19.4321 19.4784C19.4235 19.4808 19.4146 19.481 19.4059 19.4789H12.4378C12.4378 19.4789 12.3649 19.4789 12.3754 19.4059V15.9324H12.3949Z" fill="#1A1A1A" fill-opacity="0.8"/>
</svg>
