<svg width="140" height="140" viewBox="0 0 140 140" fill="none" xmlns="http://www.w3.org/2000/svg">
<rect x="97.9258" y="52.1182" width="6.11765" height="30.5882" fill="#4D4D4D"/>
<rect x="36.75" y="14" width="61.6471" height="112" rx="3" fill="#323232"/>
<rect x="91.3401" y="35.6477" width="1.88235" height="73.8824" fill="#5A5A5A"/>
<rect x="91.3401" y="109.53" width="1.88235" height="12.7059" fill="#4D4D4D"/>
<rect x="86.6343" y="43.1748" width="1.88235" height="15.0588" fill="#4D4D4D"/>
<rect x="86.6343" y="109.53" width="1.88235" height="12.7059" fill="#4D4D4D"/>
<rect x="81.9284" y="43.1748" width="1.88235" height="15.0588" fill="#4D4D4D"/>
<rect x="81.9284" y="109.53" width="1.88235" height="12.7059" fill="#4D4D4D"/>
<rect x="77.2226" y="43.1748" width="1.88235" height="15.0588" fill="#4D4D4D"/>
<rect x="77.2226" y="109.53" width="1.88235" height="12.7059" fill="#4D4D4D"/>
<rect x="72.5199" y="43.1748" width="1.88235" height="15.0588" fill="#4D4D4D"/>
<rect x="72.5199" y="109.53" width="1.88235" height="12.7059" fill="#4D4D4D"/>
<rect x="67.8109" y="43.1748" width="1.88235" height="15.0588" fill="#4D4D4D"/>
<rect x="67.8109" y="109.53" width="1.88235" height="12.7059" fill="#4D4D4D"/>
<rect x="63.1051" y="43.1748" width="1.88235" height="15.0588" fill="#4D4D4D"/>
<rect x="63.1051" y="109.53" width="1.88235" height="12.7059" fill="#4D4D4D"/>
<rect x="58.3993" y="43.1748" width="1.88235" height="15.0588" fill="#4D4D4D"/>
<rect x="58.3993" y="109.53" width="1.88235" height="12.7059" fill="#4D4D4D"/>
<rect x="53.6935" y="43.1748" width="1.88235" height="15.0588" fill="#4D4D4D"/>
<rect x="53.6935" y="109.53" width="1.88235" height="12.7059" fill="#4D4D4D"/>
<rect x="48.9876" y="43.1748" width="1.88235" height="15.0588" fill="#4D4D4D"/>
<rect x="48.9876" y="109.53" width="1.88235" height="12.7059" fill="#4D4D4D"/>
<rect x="44.2818" y="39.4106" width="1.88235" height="53.6471" fill="#5A5A5A"/>
<rect x="39.5729" y="39.4106" width="1.88235" height="53.6471" fill="#5A5A5A"/>
<path d="M38.1899 16.9385C38.1899 16.11 38.8615 15.4385 39.6899 15.4385H95.4547C96.2831 15.4385 96.9547 16.11 96.9547 16.9385V38.9091H38.1899V16.9385Z" fill="#494949" stroke="#FFAA00"/>
<rect x="86.6343" y="54.9395" width="1.88235" height="54.5882" fill="#5A5A5A"/>
<rect x="81.9284" y="54.9395" width="1.88235" height="54.5882" fill="#FFAA00"/>
<rect x="77.2226" y="54.9395" width="1.88235" height="54.5882" fill="#FFAA00"/>
<rect x="72.5199" y="54.9395" width="1.88235" height="54.5882" fill="#5A5A5A"/>
<rect x="67.8109" y="54.9395" width="1.88235" height="54.5882" fill="#5A5A5A"/>
<rect x="63.1051" y="54.9395" width="1.88235" height="54.5882" fill="#5A5A5A"/>
<rect x="58.3993" y="54.9395" width="1.88235" height="54.5882" fill="#5A5A5A"/>
<rect x="53.6935" y="54.9395" width="1.88235" height="54.5882" fill="#5A5A5A"/>
<rect x="48.9876" y="54.9395" width="1.88235" height="54.5882" fill="#5A5A5A"/>
<rect x="101.689" y="52.5881" width="1.88235" height="5.64706" fill="#434343"/>
<rect x="101.689" y="58.707" width="1.88235" height="5.64706" fill="#434343"/>
<rect x="101.689" y="64.8228" width="1.88235" height="5.17647" fill="#434343"/>
<rect x="101.689" y="70.47" width="1.88235" height="5.64706" fill="#434343"/>
<rect x="101.689" y="76.5889" width="1.88235" height="5.64706" fill="#434343"/>
</svg>
