<svg width="120" height="160" viewBox="0 0 120 160" fill="none" xmlns="http://www.w3.org/2000/svg">
<path d="M58.7131 41.9218C58.7131 41.9858 58.6876 42.0473 58.6423 42.0926C58.5969 42.1379 58.5355 42.1633 58.4714 42.1633C58.4073 42.1633 58.3458 42.1379 58.3004 42.0926C58.2551 42.0473 58.2296 41.9858 58.2296 41.9218V41.4662C58.2296 41.4022 58.2551 41.3407 58.3004 41.2954C58.3458 41.2501 58.4073 41.2246 58.4714 41.2246C58.5355 41.2246 58.5969 41.2501 58.6423 41.2954C58.6876 41.3407 58.7131 41.4022 58.7131 41.4662V41.9218Z" fill="#E4E8EC"/>
<path d="M59.8111 41.9218C59.8111 41.9858 59.7856 42.0473 59.7403 42.0926C59.695 42.1379 59.6335 42.1633 59.5694 42.1633C59.5053 42.1633 59.4438 42.1379 59.3985 42.0926C59.3532 42.0473 59.3277 41.9858 59.3277 41.9218V41.4662C59.3277 41.4345 59.3339 41.4031 59.3461 41.3738C59.3582 41.3445 59.376 41.3179 59.3985 41.2954C59.4209 41.273 59.4476 41.2552 59.4769 41.2431C59.5062 41.2309 59.5377 41.2246 59.5694 41.2246C59.6011 41.2246 59.6326 41.2309 59.6619 41.2431C59.6912 41.2552 59.7179 41.273 59.7403 41.2954C59.7628 41.3179 59.7806 41.3445 59.7927 41.3738C59.8049 41.4031 59.8111 41.4345 59.8111 41.4662V41.9218Z" fill="#E4E8EC"/>
<path d="M60.9057 41.939C60.9057 41.9685 60.8999 41.9976 60.8886 42.0248C60.8773 42.0521 60.8608 42.0768 60.84 42.0976C60.8191 42.1185 60.7944 42.135 60.7671 42.1463C60.7399 42.1575 60.7107 42.1633 60.6812 42.1633H60.6467C60.6172 42.1633 60.5881 42.1575 60.5608 42.1463C60.5336 42.135 60.5089 42.1185 60.488 42.0976C60.4672 42.0768 60.4506 42.0521 60.4394 42.0248C60.4281 41.9976 60.4223 41.9685 60.4223 41.939V41.449C60.4223 41.3895 60.4459 41.3324 60.488 41.2904C60.5301 41.2483 60.5872 41.2246 60.6467 41.2246H60.6812C60.7408 41.2246 60.7979 41.2483 60.84 41.2904C60.882 41.3324 60.9057 41.3895 60.9057 41.449V41.939Z" fill="#E4E8EC"/>
<path d="M62.0037 41.9218C62.0037 41.9858 61.9783 42.0473 61.9329 42.0926C61.8876 42.1379 61.8261 42.1633 61.762 42.1633C61.6979 42.1633 61.6364 42.1379 61.5911 42.0926C61.5458 42.0473 61.5203 41.9858 61.5203 41.9218V41.4662C61.5203 41.4022 61.5458 41.3407 61.5911 41.2954C61.6364 41.2501 61.6979 41.2246 61.762 41.2246C61.8261 41.2246 61.8876 41.2501 61.9329 41.2954C61.9783 41.3407 62.0037 41.4022 62.0037 41.4662V41.9218Z" fill="#E4E8EC"/>
<path fill-rule="evenodd" clip-rule="evenodd" d="M4.86632 113.922L4.86631 37.8633L115.135 37.8633V113.922H111.304L104.25 110.055V48.1797H15.1087V110.055L8.69565 113.922H4.86632ZM69.3864 45.6386L70.1288 44.6516C70.1465 44.6304 70.1597 44.6057 70.1675 44.5793C70.1754 44.5528 70.1778 44.5249 70.1746 44.4975C70.1713 44.47 70.1626 44.4435 70.1488 44.4196C70.135 44.3957 70.1164 44.3748 70.0943 44.3582C69.9965 44.2825 69.8572 44.1739 69.6806 44.0362L69.6791 44.0351L69.6688 44.027C69.3475 43.7766 68.9054 43.432 68.3678 43.0158C68.7558 42.5649 69.1134 42.0888 69.4382 41.5905C69.6311 41.2851 69.8052 40.9681 69.9596 40.6415C69.9787 40.6065 69.9894 40.5675 69.9907 40.5276C69.9907 40.4681 69.967 40.4111 69.9249 40.369C69.8829 40.3269 69.8258 40.3033 69.7662 40.3033C69.7128 40.3032 69.6611 40.3229 69.6212 40.3585C68.7037 41.0825 68.2913 41.4026 67.8318 41.7592C67.6671 41.887 67.4961 42.0197 67.2939 42.1772L66.8213 41.8095C66.3352 41.4316 65.9297 41.1163 64.9666 40.3585C64.9267 40.3229 64.8751 40.3032 64.8216 40.3033C64.7621 40.3033 64.705 40.3269 64.6629 40.369C64.6208 40.4111 64.5972 40.4681 64.5972 40.5276C64.598 40.568 64.61 40.6074 64.6317 40.6415C64.7861 40.9681 64.9602 41.2851 65.1531 41.5905C65.4779 42.0888 65.8355 42.5649 66.2235 43.0158L64.497 44.3582C64.475 44.3748 64.4566 44.3957 64.4427 44.4195C64.4289 44.4433 64.4199 44.4696 64.4164 44.4969C64.4128 44.5243 64.4148 44.552 64.4221 44.5785C64.4294 44.6051 64.442 44.6299 64.4591 44.6516L65.2014 45.6386C65.2361 45.6814 65.2859 45.7093 65.3406 45.7164C65.3952 45.7234 65.4505 45.7092 65.4949 45.6765C65.7953 45.4453 66.3789 44.938 66.3789 44.938C66.7242 44.6481 67.035 44.3824 67.3077 44.127C67.5805 44.3824 67.8878 44.6481 68.2366 44.938C68.2366 44.938 68.8201 45.4453 69.1206 45.6765C69.1625 45.7015 69.2118 45.7113 69.2602 45.7044C69.3085 45.6975 69.3531 45.6743 69.3864 45.6386ZM62.3421 40.5828H57.8913C57.8061 40.5828 57.7244 40.6166 57.6642 40.6768C57.604 40.7369 57.5701 40.8186 57.5701 40.9037V44.1442C57.571 44.2287 57.6053 44.3095 57.6654 44.3689C57.7255 44.4284 57.8067 44.4617 57.8913 44.4617H58.4714V44.9207C58.4714 44.9783 58.4943 45.0337 58.5351 45.0744C58.5759 45.1152 58.6312 45.1381 58.6889 45.1381H59.2345V45.5626C59.234 45.5845 59.2379 45.6062 59.2461 45.6265C59.2543 45.6468 59.2665 45.6653 59.282 45.6808C59.2974 45.6962 59.3159 45.7084 59.3362 45.7166C59.3565 45.7247 59.3783 45.7287 59.4002 45.7282H60.8194C60.8413 45.7287 60.863 45.7247 60.8834 45.7166C60.9037 45.7084 60.9221 45.6962 60.9376 45.6808C60.9531 45.6653 60.9653 45.6468 60.9735 45.6265C60.9816 45.6062 60.9856 45.5845 60.9851 45.5626V45.1381H61.5307C61.5884 45.1381 61.6437 45.1152 61.6845 45.0744C61.7253 45.0337 61.7482 44.9783 61.7482 44.9207V44.4617H62.3352C62.4198 44.4617 62.5009 44.4284 62.5611 44.3689C62.6212 44.3095 62.6554 44.2287 62.6563 44.1442V40.9037C62.6564 40.8198 62.6235 40.7392 62.5647 40.6792C62.506 40.6192 62.4261 40.5846 62.3421 40.5828ZM51.4185 40.5414C51.7996 40.5422 52.1676 40.6807 52.4544 40.9314C52.5127 40.9832 52.5683 41.039 52.6236 41.0946C52.6569 41.128 52.6901 41.1614 52.7238 41.1937C52.7479 41.2178 52.7617 41.2178 52.7894 41.1937C52.9061 41.0682 53.0331 40.9528 53.1692 40.8486C53.3866 40.6879 53.6428 40.5879 53.9116 40.5587C54.2331 40.5193 54.5589 40.5807 54.8439 40.7347C55.0513 40.8466 55.231 41.0035 55.37 41.1938C55.5089 41.3841 55.6035 41.6031 55.6469 41.8347C55.6902 42.0663 55.6812 42.3046 55.6206 42.5322C55.5599 42.7599 55.4491 42.9711 55.2962 43.1504C55.2651 43.1883 53.5974 44.8759 52.7963 45.6593C52.7756 45.68 52.7652 45.6903 52.7548 45.6903C52.7445 45.6903 52.7341 45.68 52.7134 45.6593L50.3136 43.2436C50.0534 42.9952 49.8864 42.665 49.8405 42.3084C49.813 42.0968 49.8295 41.8819 49.8889 41.6771C49.9483 41.4722 50.0494 41.2818 50.1858 41.1178C50.3977 40.8531 50.6897 40.6642 51.018 40.5794C51.1491 40.5484 51.2839 40.5356 51.4185 40.5414ZM9.85079 48.2333H8.42666V54.6281L10.9698 57.1698V92.1635L8.93528 94.1969V106.692H10.3594V94.7864L12.3939 92.7531V56.5802L9.85079 54.0386V48.2333ZM10.0534 58.7049L8.62931 57.3833V60.7382L10.0534 62.1616V58.7049ZM10.0534 64.2966L8.62931 62.975V66.3299L10.0534 67.7532V64.2966ZM10.0534 69.8882L8.62931 68.5667V71.9216L10.0534 73.3449V69.8882ZM10.0534 75.4799L8.62931 74.1583V77.5132L10.0534 78.9366V75.4799ZM110.455 48.2333H111.879V54.6281L109.336 57.1698V92.1635L111.371 94.1969V106.692H109.947V94.7864L107.912 92.7531V56.5802L110.455 54.0386V48.2333ZM110.253 58.7049L111.677 57.3833V60.7382L110.253 62.1616V58.7049ZM110.253 64.2966L111.677 62.975V66.3299L110.253 67.7532V64.2966ZM110.253 69.8882L111.677 68.5667V71.9216L110.253 73.3449V69.8882ZM110.253 75.4799L111.677 74.1583V77.5132L110.253 78.9366V75.4799Z" fill="#E4E8EC"/>
<path d="M22.034 56.3667H18.8017V58.868H19.5312L22.034 56.3667Z" fill="#E4E8EC"/>
<path d="M23.7585 58.868L26.2613 56.3667H23.7701L21.2673 58.868H23.7585Z" fill="#E4E8EC"/>
<path d="M30.4892 56.3667L27.9864 58.868H25.4953L27.998 56.3667H30.4892Z" fill="#E4E8EC"/>
<path d="M38.945 56.3667H36.4539L33.9511 58.868H36.4422L38.945 56.3667Z" fill="#E4E8EC"/>
<path d="M32.2143 58.868L34.7171 56.3667H32.224L29.7232 58.868H32.2143Z" fill="#E4E8EC"/>
<path d="M40.6681 58.868L43.169 56.3667H40.6778L38.177 58.868H40.6681Z" fill="#E4E8EC"/>
<path d="M67.4242 109.114C67.6568 108.815 67.8898 108.515 68.1238 108.217H70.9855L69.9844 109.504H67.1207L67.4242 109.114Z" fill="#E4E8EC"/>
<path d="M77.2352 108.217H79.6216L78.6205 109.504H76.2321C76.4654 109.206 76.6978 108.908 76.9299 108.609L77.2352 108.217Z" fill="#E4E8EC"/>
<path d="M79.413 109.504L80.4141 108.217H82.7598L81.7587 109.504H79.413Z" fill="#E4E8EC"/>
<path d="M100.205 109.504H82.423L83.4222 108.217H100.205V109.504Z" fill="#E4E8EC"/>
<path d="M70.54 109.504L71.5411 108.217H73.7645L72.7634 109.504H70.54Z" fill="#E4E8EC"/>
<path d="M73.4765 109.504L74.4776 108.217H76.6137L76.3101 108.607C76.0775 108.906 75.8445 109.206 75.6106 109.504H73.4765Z" fill="#E4E8EC"/>
<path fill-rule="evenodd" clip-rule="evenodd" d="M42.7069 60.4333H18.8017V67.55H100.181V56.3667H46.7759L42.7069 60.4333ZM47.1129 57.18L43.044 61.2467H19.6155V66.7367H99.3672V57.18H47.1129Z" fill="#E4E8EC"/>
<path fill-rule="evenodd" clip-rule="evenodd" d="M60.5086 69.5833L46.2672 83.8167H51.3534L65.5948 69.5833H60.5086Z" fill="#E4E8EC"/>
<path fill-rule="evenodd" clip-rule="evenodd" d="M61.5259 83.8167H56.4397L70.681 69.5833H75.7672L61.5259 83.8167Z" fill="#E4E8EC"/>
<path fill-rule="evenodd" clip-rule="evenodd" d="M71.6983 83.8167H66.6121L80.8534 69.5833H85.9397L71.6983 83.8167Z" fill="#E4E8EC"/>
<path fill-rule="evenodd" clip-rule="evenodd" d="M81.8707 83.8167H76.7845L91.0259 69.5833H96.1121L81.8707 83.8167Z" fill="#E4E8EC"/>
<path fill-rule="evenodd" clip-rule="evenodd" d="M92.0431 83.8167H86.9569L100.181 70.6V75.6833L92.0431 83.8167Z" fill="#E4E8EC"/>
<path fill-rule="evenodd" clip-rule="evenodd" d="M100.181 83.8167H97.1293L100.181 80.7667V83.8167Z" fill="#E4E8EC"/>
<path fill-rule="evenodd" clip-rule="evenodd" d="M18.8017 69.5833H55.4224L41.181 83.8167H18.8017V69.5833ZM19.6155 83.0033H40.8439L53.4577 70.3967H19.6155V83.0033Z" fill="#E4E8EC"/>
<path d="M18.8048 87.07L100.184 86.5617L100.179 85.7484L18.7997 86.2567L18.8048 87.07Z" fill="#E4E8EC"/>
<path d="M65.5948 109.64V108.827L18.8017 108.827V109.64L65.5948 109.64Z" fill="#E4E8EC"/>
<path fill-rule="evenodd" clip-rule="evenodd" d="M1 34H119V119.77H67.1207V125.5H23.3793V119.77H1V34ZM1.81379 113.922V118.52L3.64443 116.69L3.64443 113.92H4.45822L4.45822 116.452L115.541 116.452V113.92H116.355V116.689L118.186 118.52V113.922H116.763L116.762 36.2366L3.23714 36.2366L3.23714 37.8633H3.23872L3.23873 113.922H1.81379ZM117.472 118.956L115.78 117.265L4.21993 117.265L2.52753 118.956H117.472ZM24.1931 120.213H66.3069V121.332H24.1931V120.213ZM24.1931 122.145V122.45H66.3069V122.145H24.1931ZM66.3069 123.263H24.1931V124.687H66.3069V123.263Z" fill="#E4E8EC"/>
</svg>
