<svg width="140" height="140" viewBox="0 0 140 140" fill="none" xmlns="http://www.w3.org/2000/svg">
<rect x="4.8125" y="9.1875" width="131.25" height="122.5" fill="#737274"/>
<rect x="6.5625" y="10.9375" width="127.75" height="1.64915" fill="#292929"/>
<rect x="6.5625" y="62.8855" width="127.75" height="1.64915" fill="#292929"/>
<rect x="6.5625" y="13.4121" width="127.75" height="1.64915" fill="#292929"/>
<rect x="6.5625" y="65.3601" width="127.75" height="1.64915" fill="#292929"/>
<rect x="6.5625" y="15.885" width="127.75" height="1.64915" fill="#292929"/>
<rect x="6.5625" y="67.833" width="127.75" height="1.64915" fill="#292929"/>
<rect x="6.5625" y="18.3579" width="127.75" height="1.64915" fill="#292929"/>
<rect x="6.5625" y="70.3059" width="127.75" height="1.64915" fill="#292929"/>
<rect x="6.5625" y="20.8325" width="127.75" height="1.64915" fill="#292929"/>
<rect x="6.5625" y="72.7808" width="127.75" height="1.64915" fill="#292929"/>
<rect x="6.5625" y="23.3054" width="127.75" height="1.64915" fill="#292929"/>
<rect x="6.5625" y="75.2551" width="127.75" height="1.64915" fill="#292929"/>
<rect x="6.5625" y="25.78" width="127.75" height="1.64915" fill="#292929"/>
<rect x="6.5625" y="77.7297" width="127.75" height="1.64915" fill="#292929"/>
<rect x="6.5625" y="28.2546" width="127.75" height="1.64915" fill="#292929"/>
<rect x="6.5625" y="80.2012" width="127.75" height="1.64915" fill="#292929"/>
<rect x="6.5625" y="30.7258" width="127.75" height="1.64915" fill="#292929"/>
<rect x="6.5625" y="82.6755" width="127.75" height="1.64915" fill="#292929"/>
<rect x="6.5625" y="33.2004" width="127.75" height="1.64915" fill="#292929"/>
<rect x="6.5625" y="85.1501" width="127.75" height="1.64915" fill="#292929"/>
<rect x="6.5625" y="35.675" width="127.75" height="1.64915" fill="#292929"/>
<rect x="6.5625" y="87.623" width="127.75" height="1.64915" fill="#292929"/>
<rect x="6.5625" y="38.1497" width="127.75" height="1.64915" fill="#292929"/>
<rect x="6.5625" y="90.0977" width="127.75" height="1.64915" fill="#292929"/>
<rect x="6.5625" y="40.6226" width="127.75" height="1.64915" fill="#292929"/>
<rect x="6.5625" y="92.5706" width="127.75" height="1.64915" fill="#292929"/>
<rect x="6.5625" y="43.0955" width="127.75" height="1.64915" fill="#292929"/>
<rect x="6.5625" y="95.0435" width="127.75" height="1.64915" fill="#292929"/>
<rect x="6.5625" y="97.5181" width="127.75" height="1.64915" fill="#292929"/>
<rect x="6.5625" y="99.9927" width="127.75" height="1.64915" fill="#292929"/>
<rect x="6.5625" y="102.466" width="127.75" height="1.64915" fill="#292929"/>
<rect x="6.5625" y="104.938" width="127.75" height="1.64915" fill="#292929"/>
<rect x="6.5625" y="107.413" width="127.75" height="1.64915" fill="#292929"/>
<rect x="6.5625" y="109.886" width="127.75" height="1.64915" fill="#292929"/>
<rect x="6.5625" y="112.361" width="127.75" height="1.64915" fill="#292929"/>
<rect x="6.5625" y="114.835" width="127.75" height="1.64915" fill="#292929"/>
<rect x="6.5625" y="117.306" width="127.75" height="1.64915" fill="#292929"/>
<rect x="6.5625" y="119.781" width="127.75" height="1.64915" fill="#292929"/>
<rect x="6.5625" y="122.256" width="127.75" height="1.64915" fill="#292929"/>
<rect x="6.5625" y="124.73" width="127.75" height="1.64915" fill="#292929"/>
<rect x="6.5625" y="127.203" width="127.75" height="1.64915" fill="#292929"/>
<rect x="57.3125" y="52.0625" width="7.875" height="4.375" rx="1" fill="#292929"/>
<rect x="44.1875" y="52.0625" width="7.875" height="4.375" rx="1" fill="#292929"/>
<rect x="70.4375" y="52.9375" width="6.125" height="2.625" rx="1.3125" fill="#292929"/>
<circle cx="84" cy="54.25" r="2.1875" fill="#292929"/>
<circle cx="84" cy="54.25" r="1.3125" fill="#4D4D4D"/>
<circle cx="94.5" cy="54.25" r="2.1875" fill="#292929"/>
<circle cx="94.5" cy="54.25" r="1.0625" stroke="#FFAA00" stroke-width="0.5"/>
<rect x="58.1875" y="52.9375" width="6.125" height="0.875" fill="#4D4D4D"/>
<rect x="45.0625" y="52.9375" width="6.125" height="0.875" fill="#4D4D4D"/>
<rect x="71.3125" y="53.8125" width="4.375" height="0.875" fill="#4D4D4D"/>
</svg>
