<svg width="140" height="140" viewBox="0 0 140 140" fill="none" xmlns="http://www.w3.org/2000/svg">
<rect x="30.625" y="19.25" width="74.6394" height="100.625" fill="#3C3C3C"/>
<rect x="105.264" y="64.5876" width="4.97596" height="35.9375" fill="#4D4D4D"/>
<rect x="107.478" y="65.1392" width="2.21153" height="6.63461" fill="#434343"/>
<rect x="107.478" y="72.3262" width="2.21153" height="6.63461" fill="#434343"/>
<rect x="107.478" y="79.5146" width="2.21153" height="6.08173" fill="#434343"/>
<rect x="107.478" y="86.1492" width="2.21153" height="6.63462" fill="#434343"/>
<rect x="107.478" y="93.3362" width="2.21153" height="6.63461" fill="#434343"/>
<rect x="44.4478" y="35.8367" width="27.6442" height="66.899" fill="#4D4D4D"/>
<rect x="42.2341" y="39.1545" width="5.52884" height="60.8173" fill="#5C5C5C"/>
<rect x="88.1246" y="56.8464" width="6.63462" height="6.63462" fill="#4D4D4D"/>
<rect x="80.3834" y="72.8804" width="6.63461" height="6.63461" fill="#4D4D4D"/>
<rect x="57.1652" y="45.2361" width="11.0577" height="8.84615" fill="#323232"/>
<rect x="57.1652" y="58.5061" width="11.0577" height="8.84615" fill="#323232"/>
<rect x="57.1652" y="71.7734" width="11.0577" height="8.84615" fill="#323232"/>
<rect x="57.1652" y="85.0435" width="11.0577" height="8.84615" fill="#323232"/>
<rect x="80.3834" y="41.3655" width="6.63461" height="6.63462" fill="#4D4D4D"/>
<rect x="91.4411" y="66.2446" width="3.31731" height="6.63461" fill="#4D4D4D"/>
<rect opacity="0.8" x="74.3018" y="84.4895" width="4.42308" height="2.21154" fill="#4D4D4D"/>
<rect opacity="0.8" x="74.3018" y="41.3655" width="4.42308" height="2.21154" fill="#4D4D4D"/>
<rect opacity="0.8" x="74.3018" y="87.2546" width="4.42308" height="2.21154" fill="#4D4D4D"/>
<rect opacity="0.8" x="74.3018" y="44.1292" width="4.42308" height="2.21154" fill="#4D4D4D"/>
<rect opacity="0.8" x="80.3834" y="93.8889" width="4.42308" height="3.31731" fill="#4D4D4D"/>
<rect opacity="0.8" x="80.3834" y="97.7595" width="4.42308" height="3.31731" fill="#4D4D4D"/>
<rect x="101.396" y="64.5876" width="3.87019" height="35.9375" fill="#595959"/>
<path d="M42.4199 31.137H98.1026L101.394 24.5024V19.25H30.625V119.875H101.394V115.452L98.1026 107.712H42.4199V31.137Z" fill="#323232"/>
<circle cx="98.6303" cy="38.6011" r="2.76442" fill="#4D4D4D"/>
<rect x="96.9686" y="66.2446" width="4.42308" height="0.552887" fill="#D9D9D9"/>
<rect x="96.9686" y="77.855" width="4.42308" height="0.552887" fill="#D9D9D9"/>
<rect x="96.9686" y="67.3516" width="4.42308" height="0.552887" fill="#D9D9D9"/>
<rect x="96.9686" y="78.9619" width="4.42308" height="0.552887" fill="#D9D9D9"/>
<rect x="96.9686" y="68.4556" width="4.42308" height="0.552887" fill="#D9D9D9"/>
<rect x="96.9686" y="80.0674" width="4.42308" height="0.552887" fill="#D9D9D9"/>
<rect x="96.9686" y="69.5625" width="4.42308" height="0.552887" fill="#D9D9D9"/>
<rect x="73.1963" y="85.3193" width="0.552887" height="0.552887" fill="#D9D9D9"/>
<rect x="79.2779" y="88.0845" width="0.552887" height="0.552879" fill="#D9D9D9"/>
<rect x="79.2779" y="85.3193" width="0.552887" height="0.552887" fill="#D9D9D9"/>
<rect x="80.9373" y="71.7737" width="0.552887" height="0.552887" fill="#D9D9D9"/>
<rect x="80.9375" y="70.6667" width="0.552887" height="0.552887" fill="#D9D9D9"/>
<rect x="80.9373" y="81.1733" width="0.552887" height="0.552887" fill="#D9D9D9"/>
<rect x="80.9375" y="80.0662" width="0.552887" height="0.552887" fill="#D9D9D9"/>
<rect x="82.5954" y="71.7737" width="0.552887" height="0.552887" fill="#D9D9D9"/>
<rect x="82.5954" y="70.6667" width="0.552887" height="0.552887" fill="#D9D9D9"/>
<rect x="82.5954" y="81.1733" width="0.552887" height="0.552887" fill="#D9D9D9"/>
<rect x="82.5954" y="80.0664" width="0.552887" height="0.552887" fill="#D9D9D9"/>
<rect x="84.2549" y="71.7737" width="0.552887" height="0.552887" fill="#D9D9D9"/>
<rect x="84.2549" y="70.6667" width="0.552887" height="0.552887" fill="#D9D9D9"/>
<rect x="78.7232" y="65.6921" width="0.552887" height="0.552887" transform="rotate(-90 78.7232 65.6921)" fill="#D9D9D9"/>
<rect x="77.6177" y="65.6921" width="0.552887" height="0.552887" transform="rotate(-90 77.6177 65.6921)" fill="#D9D9D9"/>
<rect x="78.7232" y="64.5859" width="0.552879" height="0.552887" transform="rotate(-90 78.7232 64.5859)" fill="#D9D9D9"/>
<rect x="77.6177" y="64.5859" width="0.552879" height="0.552887" transform="rotate(-90 77.6177 64.5859)" fill="#D9D9D9"/>
<rect x="78.7232" y="63.4814" width="0.552883" height="0.552887" transform="rotate(-90 78.7232 63.4814)" fill="#D9D9D9"/>
<rect x="77.6177" y="63.4814" width="0.552883" height="0.552887" transform="rotate(-90 77.6177 63.4814)" fill="#D9D9D9"/>
<rect x="84.2549" y="81.1733" width="0.552887" height="0.552887" fill="#D9D9D9"/>
<rect x="84.2549" y="80.0664" width="0.552887" height="0.552887" fill="#D9D9D9"/>
<rect x="85.913" y="71.7737" width="0.552887" height="0.552887" fill="#D9D9D9"/>
<rect x="85.913" y="70.6667" width="0.552887" height="0.552887" fill="#D9D9D9"/>
<rect x="81.4913" y="54.0845" width="0.552879" height="0.552883" fill="#D9D9D9"/>
<rect x="81.4913" y="52.9775" width="0.552879" height="0.552883" fill="#D9D9D9"/>
<rect x="80.3822" y="54.0845" width="0.552887" height="0.552883" fill="#D9D9D9"/>
<rect x="80.3822" y="52.9775" width="0.552887" height="0.552883" fill="#D9D9D9"/>
<rect x="84.255" y="54.0845" width="0.552887" height="0.552883" fill="#D9D9D9"/>
<rect x="84.255" y="52.9775" width="0.552887" height="0.552883" fill="#D9D9D9"/>
<rect x="83.1459" y="54.0845" width="0.552887" height="0.552883" fill="#D9D9D9"/>
<rect x="83.1459" y="52.9775" width="0.552887" height="0.552883" fill="#D9D9D9"/>
<rect x="81.4913" y="56.8496" width="0.552879" height="0.552883" fill="#D9D9D9"/>
<rect x="81.4913" y="55.7427" width="0.552879" height="0.552883" fill="#D9D9D9"/>
<rect x="80.3822" y="56.8496" width="0.552887" height="0.552883" fill="#D9D9D9"/>
<rect x="80.3822" y="55.7427" width="0.552887" height="0.552883" fill="#D9D9D9"/>
<rect x="90.3361" y="67.3508" width="0.552887" height="0.552887" transform="rotate(-90 90.3361 67.3508)" fill="#D9D9D9"/>
<rect x="89.2306" y="67.3508" width="0.552887" height="0.552887" transform="rotate(-90 89.2306 67.3508)" fill="#D9D9D9"/>
<rect x="90.3361" y="69.0081" width="0.552887" height="0.552887" transform="rotate(-90 90.3361 69.0081)" fill="#D9D9D9"/>
<rect x="89.2306" y="69.0081" width="0.552887" height="0.552887" transform="rotate(-90 89.2306 69.0081)" fill="#D9D9D9"/>
<rect x="75.6871" y="47.4448" width="0.552887" height="0.552883" transform="rotate(180 75.6871 47.4448)" fill="#D9D9D9"/>
<rect x="75.6871" y="48.5518" width="0.552887" height="0.552883" transform="rotate(180 75.6871 48.5518)" fill="#D9D9D9"/>
<rect x="75.6871" y="39.7051" width="0.552887" height="0.552887" transform="rotate(180 75.6871 39.7051)" fill="#D9D9D9"/>
<rect x="75.6871" y="40.812" width="0.552887" height="0.552883" transform="rotate(180 75.6871 40.812)" fill="#D9D9D9"/>
<rect x="76.7928" y="47.4448" width="0.552887" height="0.552883" transform="rotate(180 76.7928 47.4448)" fill="#D9D9D9"/>
<rect x="76.7928" y="48.5518" width="0.552887" height="0.552883" transform="rotate(180 76.7928 48.5518)" fill="#D9D9D9"/>
<rect x="76.7928" y="39.7051" width="0.552887" height="0.552887" transform="rotate(180 76.7928 39.7051)" fill="#D9D9D9"/>
<rect x="76.7928" y="40.812" width="0.552887" height="0.552883" transform="rotate(180 76.7928 40.812)" fill="#D9D9D9"/>
<rect x="77.8957" y="47.4448" width="0.552887" height="0.552883" transform="rotate(180 77.8957 47.4448)" fill="#D9D9D9"/>
<rect x="77.8957" y="48.5518" width="0.552887" height="0.552883" transform="rotate(180 77.8957 48.5518)" fill="#D9D9D9"/>
<rect x="77.8957" y="39.7051" width="0.552887" height="0.552887" transform="rotate(180 77.8957 39.7051)" fill="#D9D9D9"/>
<rect x="77.8957" y="40.812" width="0.552887" height="0.552883" transform="rotate(180 77.8957 40.812)" fill="#D9D9D9"/>
<rect x="93.1011" y="82.8303" width="0.552887" height="0.552887" transform="rotate(-90 93.1011 82.8303)" fill="#D9D9D9"/>
<rect x="91.9956" y="82.8303" width="0.552887" height="0.552887" transform="rotate(-90 91.9956 82.8303)" fill="#D9D9D9"/>
<rect x="93.1011" y="83.9377" width="0.552887" height="0.552887" transform="rotate(-90 93.1011 83.9377)" fill="#D9D9D9"/>
<rect x="91.9956" y="83.9377" width="0.552887" height="0.552887" transform="rotate(-90 91.9956 83.9377)" fill="#D9D9D9"/>
<rect x="93.1011" y="85.042" width="0.552887" height="0.552887" transform="rotate(-90 93.1011 85.042)" fill="#D9D9D9"/>
<rect x="91.9956" y="85.042" width="0.552887" height="0.552887" transform="rotate(-90 91.9956 85.042)" fill="#D9D9D9"/>
<rect x="93.1011" y="86.1472" width="0.552887" height="0.552887" transform="rotate(-90 93.1011 86.1472)" fill="#D9D9D9"/>
<rect x="91.9956" y="86.1472" width="0.552887" height="0.552887" transform="rotate(-90 91.9956 86.1472)" fill="#D9D9D9"/>
<rect x="85.913" y="95.2717" width="0.552887" height="0.552887" transform="rotate(-180 85.913 95.2717)" fill="#D9D9D9"/>
<rect x="85.913" y="96.3787" width="0.552887" height="0.552887" transform="rotate(-180 85.913 96.3787)" fill="#D9D9D9"/>
<rect x="87.2966" y="95.2717" width="0.552887" height="0.552887" transform="rotate(-180 87.2966 95.2717)" fill="#D9D9D9"/>
<rect x="87.2966" y="96.3787" width="0.552887" height="0.552887" transform="rotate(-180 87.2966 96.3787)" fill="#D9D9D9"/>
<rect x="89.7871" y="95.2717" width="0.552887" height="0.552887" transform="rotate(-180 89.7871 95.2717)" fill="#D9D9D9"/>
<rect x="89.787" y="96.3784" width="0.552887" height="0.552879" transform="rotate(-180 89.787 96.3784)" fill="#D9D9D9"/>
<rect x="92.2702" y="95.2717" width="0.552887" height="0.552887" transform="rotate(-180 92.2702 95.2717)" fill="#D9D9D9"/>
<rect x="92.2702" y="96.3787" width="0.552887" height="0.552887" transform="rotate(-180 92.2702 96.3787)" fill="#D9D9D9"/>
<rect x="88.129" y="95.2717" width="0.552887" height="0.552887" transform="rotate(-180 88.129 95.2717)" fill="#D9D9D9"/>
<rect x="88.129" y="96.3787" width="0.552887" height="0.552887" transform="rotate(-180 88.129 96.3787)" fill="#D9D9D9"/>
<rect x="90.6121" y="95.2717" width="0.552887" height="0.552887" transform="rotate(-180 90.6121 95.2717)" fill="#D9D9D9"/>
<rect x="90.6121" y="96.3787" width="0.552887" height="0.552887" transform="rotate(-180 90.6121 96.3787)" fill="#D9D9D9"/>
<rect x="93.0992" y="95.2717" width="0.552887" height="0.552887" transform="rotate(-180 93.0992 95.2717)" fill="#D9D9D9"/>
<rect x="93.0992" y="96.3787" width="0.552887" height="0.552887" transform="rotate(-180 93.0992 96.3787)" fill="#D9D9D9"/>
<rect x="88.9581" y="95.2717" width="0.552879" height="0.552887" transform="rotate(-180 88.9581 95.2717)" fill="#D9D9D9"/>
<rect x="88.9581" y="96.3787" width="0.552879" height="0.552887" transform="rotate(-180 88.9581 96.3787)" fill="#D9D9D9"/>
<rect x="91.4411" y="95.2717" width="0.552887" height="0.552887" transform="rotate(-180 91.4411 95.2717)" fill="#D9D9D9"/>
<rect x="91.4411" y="96.3784" width="0.552879" height="0.552879" transform="rotate(-180 91.4411 96.3784)" fill="#D9D9D9"/>
<rect x="93.9317" y="95.2717" width="0.552887" height="0.552887" transform="rotate(-180 93.9317 95.2717)" fill="#D9D9D9"/>
<rect x="93.9317" y="96.3787" width="0.552887" height="0.552887" transform="rotate(-180 93.9317 96.3787)" fill="#D9D9D9"/>
<rect x="90.3361" y="70.6667" width="0.552887" height="0.552887" transform="rotate(-90 90.3361 70.6667)" fill="#D9D9D9"/>
<rect x="89.2306" y="70.6667" width="0.552887" height="0.552887" transform="rotate(-90 89.2306 70.6667)" fill="#D9D9D9"/>
<rect x="90.3361" y="72.3276" width="0.552887" height="0.552887" transform="rotate(-90 90.3361 72.3276)" fill="#D9D9D9"/>
<rect x="89.2306" y="72.3276" width="0.552887" height="0.552887" transform="rotate(-90 89.2306 72.3276)" fill="#D9D9D9"/>
<rect x="85.913" y="81.1733" width="0.552887" height="0.552887" fill="#D9D9D9"/>
<rect x="85.913" y="80.0664" width="0.552887" height="0.552887" fill="#D9D9D9"/>
<rect x="73.1963" y="88.0845" width="0.552887" height="0.552879" fill="#D9D9D9"/>
<rect x="96.9686" y="81.1729" width="4.42308" height="0.552887" fill="#D9D9D9"/>
<rect x="96.9686" y="70.6694" width="4.42308" height="0.552887" fill="#D9D9D9"/>
<rect x="96.9686" y="82.2786" width="4.42308" height="0.552887" fill="#D9D9D9"/>
<rect x="96.9686" y="71.7734" width="4.42308" height="0.552887" fill="#D9D9D9"/>
<rect x="96.9686" y="83.3853" width="4.42308" height="0.552887" fill="#D9D9D9"/>
<rect x="96.9686" y="72.8804" width="4.42308" height="0.552887" fill="#D9D9D9"/>
<rect x="96.9686" y="84.4895" width="4.42308" height="0.552887" fill="#D9D9D9"/>
<rect x="96.9686" y="73.9858" width="4.42308" height="0.552887" fill="#D9D9D9"/>
<rect x="96.9686" y="85.5964" width="4.42308" height="0.552887" fill="#D9D9D9"/>
<rect x="96.9686" y="75.0913" width="4.42308" height="0.552887" fill="#D9D9D9"/>
<rect x="96.9686" y="86.7031" width="4.42308" height="0.552879" fill="#D9D9D9"/>
<rect x="96.9686" y="87.8074" width="4.42308" height="0.552887" fill="#D9D9D9"/>
<rect x="96.9686" y="88.9143" width="4.42308" height="0.552879" fill="#D9D9D9"/>
<rect x="96.9686" y="90.0183" width="4.42308" height="0.552887" fill="#D9D9D9"/>
<rect x="96.9686" y="91.1252" width="4.42308" height="0.552879" fill="#D9D9D9"/>
<rect x="96.9686" y="92.2307" width="4.42308" height="0.552879" fill="#D9D9D9"/>
<rect x="96.9686" y="93.3362" width="4.42308" height="0.552879" fill="#D9D9D9"/>
<rect x="96.9686" y="94.4417" width="4.42308" height="0.552879" fill="#D9D9D9"/>
<rect x="96.9686" y="95.5486" width="4.42308" height="0.552887" fill="#D9D9D9"/>
<rect x="96.9686" y="96.6526" width="4.42308" height="0.552879" fill="#D9D9D9"/>
<rect x="96.9686" y="97.7595" width="4.42308" height="0.552887" fill="#D9D9D9"/>
<rect x="96.9686" y="98.8665" width="4.42308" height="0.552879" fill="#D9D9D9"/>
<path d="M99.7859 38.6008C99.7859 39.2407 99.2672 39.7594 98.6273 39.7594C97.9873 39.7594 97.4686 39.2407 97.4686 38.6008C97.4686 37.9609 97.9873 37.4421 98.6273 37.4421C99.2672 37.4421 99.7859 37.9609 99.7859 38.6008Z" stroke="#FFAA00"/>
<path d="M61.0312 43.854V38.878V38.6016L72.9183 50.4886V55.741L61.0312 43.854Z" fill="white"/>
<path d="M61.0312 52.6994V47.7235V47.447L72.9183 59.334V64.5864L61.0312 52.6994Z" fill="white"/>
<path d="M61.0312 61.5446V56.5687V56.2922L72.9183 68.1793V73.4317L61.0312 61.5446Z" fill="white"/>
<path d="M61.0312 70.3928V65.4168V65.1404L72.9183 77.0274V82.2798L61.0312 70.3928Z" fill="white"/>
<path d="M72.9196 35.2837H69.6023L72.9196 38.601V35.2837Z" fill="white"/>
<path d="M65.73 35.2837H61.3069L72.9175 46.8943V42.1947L65.73 35.2837Z" fill="white"/>
</svg>
