<svg width="180" height="180" viewBox="0 0 180 180" fill="none" xmlns="http://www.w3.org/2000/svg">
<rect x="71" y="16" width="4" height="5" rx="2" fill="#3C3C3C"/>
<rect x="89" y="16" width="4" height="5" rx="2" fill="#3C3C3C"/>
<rect x="80.5" y="16" width="4" height="5" rx="2" fill="#3C3C3C"/>
<rect x="98.5" y="16" width="4" height="5" rx="2" fill="#3C3C3C"/>
<rect x="123.404" y="67.009" width="7.86555" height="39.3277" fill="#323232"/>
<rect x="128.242" y="67.6133" width="2.42017" height="7.26051" fill="#6C6C6C"/>
<rect x="128.242" y="75.4805" width="2.42017" height="7.26051" fill="#6C6C6C"/>
<rect x="128.242" y="83.3435" width="2.42017" height="6.65546" fill="#6C6C6C"/>
<rect x="128.242" y="90.6042" width="2.42017" height="7.26051" fill="#6C6C6C"/>
<rect x="128.242" y="98.4712" width="2.42017" height="7.26051" fill="#6C6C6C"/>
<rect x="48" y="19" width="77" height="142" rx="2" fill="#CBCBCB" stroke="#9B9B9B" stroke-width="2"/>
<rect x="52.8501" y="22.5" width="2" height="133" fill="#EEEEEE"/>
<rect x="59.8501" y="22.5" width="2" height="133" fill="#EEEEEE"/>
<rect x="66.8501" y="54.5" width="2" height="101" fill="#EEEEEE"/>
<rect x="73.8501" y="54.5" width="2" height="101" fill="#EEEEEE"/>
<rect x="81.8501" y="54.5" width="2" height="101" fill="#EEEEEE"/>
<rect x="88.8501" y="54.5" width="2" height="101" fill="#EEEEEE"/>
<rect x="95.8501" y="54.5" width="2" height="101" fill="#EEEEEE"/>
<rect x="103.85" y="54.5" width="2" height="101" fill="#EEEEEE"/>
<rect x="110.85" y="22.5" width="2" height="133" fill="#EEEEEE"/>
<rect x="117.85" y="22.5" width="2" height="133" fill="#EEEEEE"/>
<rect x="53" y="151" width="2" height="5" fill="#909090"/>
<rect x="60" y="151" width="2" height="5" fill="#909090"/>
<rect x="67" y="151" width="2" height="5" fill="#909090"/>
<rect x="74" y="151" width="2" height="5" fill="#909090"/>
<rect x="82" y="151" width="2" height="5" fill="#909090"/>
<rect x="89" y="151" width="2" height="5" fill="#909090"/>
<rect x="96" y="151" width="2" height="5" fill="#909090"/>
<rect x="104" y="151" width="2" height="5" fill="#909090"/>
<rect x="111" y="151" width="2" height="5" fill="#909090"/>
<rect x="118" y="151" width="2" height="5" fill="#909090"/>
<path d="M67 18H106C106.552 18 107 18.4477 107 19V48C107 48.5523 106.552 49 106 49H67C66.4477 49 66 48.5523 66 48V19C66 18.4477 66.4477 18 67 18Z" fill="#EEEEEE" stroke="#B1B1B1" stroke-width="2"/>
</svg>
