<svg width="120" height="160" viewBox="0 0 120 160" fill="none" xmlns="http://www.w3.org/2000/svg">
<path fill-rule="evenodd" clip-rule="evenodd" d="M41 4V3.1923C41 3.08012 41.064 3 41.16 3H53.84C53.92 3 54 3.08012 54 3.1923V4H54.7603C54.8883 4 55.0002 4.14422 55.0002 4.30447V5.19238H58V4.30447C58 4.1282 58.112 4 58.24 4H59V3.1923C59 3.08012 59.064 3 59.16 3H71.84C71.92 3 72 3.08012 72 3.1923V4H72.7603C72.8883 4 73.0002 4.14422 73.0002 4.30447V5.19238H78V4.5H88V5.19238H95.818C97.9296 5.19238 99.6573 6.92308 99.6573 9.03838V54H104V60H102V62H104V70H102V72H104V80H102V82H104V90H102V92H104V98H99.6573V152.654C99.6573 154.769 97.9296 156.5 95.818 156.5H20.8393C18.7277 156.5 17 154.769 17 152.654V9.03838C17 6.92308 18.7277 5.19238 20.8393 5.19238H26.2678L26.8705 4.5H34.1295L34.7322 5.19238H40V4.30447C40 4.1282 40.112 4 40.24 4H41ZM21.4952 81.2527L20.0874 79.7492V148.5H20L18.0895 151.366C18.0883 151.311 18.0878 151.256 18.0878 151.2V9.03838C18.0878 7.516 19.3196 6.28208 20.8393 6.28208H95.818C97.3377 6.28208 98.5695 7.516 98.5695 9.03838V39.3336H18.0879V40.4233H98.5695V107.96H96.5V121.3H95.1143V41.3765H93.7065V125.3H96.5V144.529L98.5695 148.299V152.654C98.5695 154.177 97.3377 155.41 95.818 155.41H26V149.5C26 148.948 25.5523 148.5 25 148.5H21.4952V125.3H25.3665V121.3H21.4952V81.2527ZM21.0953 7.8877H94.5222C96.122 7.8877 97.4337 9.18572 97.4337 10.8042V38.6236H19.2236V9.77864C19.2236 8.73702 20.0555 7.8877 21.0953 7.8877ZM28.1822 41.8765H26.7744V52.4251L28.1822 53.9695V41.8765ZM21.4952 46.633V41.8765H20.0874V45.0885L21.4952 46.633ZM21.4952 48.8481L20.0874 47.3036V61.0552L21.4952 62.5825V48.8481ZM20.0874 63.2922V78.0625L21.4952 79.5666V64.8191L20.0874 63.2922ZM26.7744 85.2072V70.5452L28.1822 72.0721V86.7113L26.7744 85.2072ZM33.4609 77.7976V92.3513L34.8687 93.8554V79.3245L33.4609 77.7976ZM33.4609 75.5648L34.8687 77.0921V63.5207L33.4609 61.9762V75.5648ZM40.1641 85.0681V99.5132L41.5718 101.017V86.595L40.1641 85.0681ZM40.1641 82.8373L41.5718 84.3646V70.875L40.1641 69.3305V82.8373ZM46.8506 92.3206V106.657L48.2583 108.162V93.8475L46.8506 92.3206ZM46.8506 90.0918L48.2583 91.6192V78.211L46.8506 76.6665V90.0918ZM53.5537 99.591V113.819L54.9615 115.323V101.118L53.5537 99.591ZM53.5537 97.3643L54.9615 98.8917V85.5653L53.5537 84.0208V97.3643ZM60.2402 106.843V125.8H65.5193V121.8H61.648V108.37L60.2402 106.843ZM60.2402 104.619L61.648 106.146V92.9013L60.2402 91.3568V104.619ZM66.9272 114.096V125.8H72.2063V121.8H68.335V115.623L66.9272 114.096ZM66.9272 111.874L68.335 113.401V100.238L66.9272 98.6934V111.874ZM73.6299 121.366V125.8H78.9089V121.8H74.0294L73.6299 121.366ZM73.6299 119.146L75.0376 120.673V107.592L73.6299 106.047V119.146ZM80.3169 113.384V125.8H85.596V121.8H81.7246V114.928L80.3169 113.384ZM80.3169 111.169L81.7246 112.713V41.8765H80.3169V111.169ZM87.0195 120.737V125.8H92.2986V121.8H87.9878L87.0195 120.737ZM87.0195 118.522L88.4273 120.067V41.8765H87.0195V118.522ZM75.0376 105.376L73.6299 103.832V41.8765H75.0376V105.376ZM68.335 41.8765V98.0228L66.9272 96.4783V41.8765H68.335ZM61.648 90.6862V41.8765H60.2402V89.1417L61.648 90.6862ZM54.9615 41.8765V83.3501L53.5537 81.8056V41.8765H54.9615ZM48.2583 75.9959V41.8765H46.8506V74.4514L48.2583 75.9959ZM41.5718 41.8765V68.6598L40.1641 67.1153V41.8765H41.5718ZM34.8687 61.3056V41.8765H33.4609V59.7611L34.8687 61.3056ZM53.5537 115.993L54.9615 117.496V121.8H58.8328V125.8H53.5537V115.993ZM48.2583 110.337L46.8506 108.833V125.8H52.1296V121.8H48.2583V110.337ZM40.1641 101.692L41.5718 103.195V121.8H45.4431V125.8H40.1641V101.692ZM34.8687 96.0362L33.4609 94.5327V125.8H38.74V121.8H34.8687V96.0362ZM26.7744 87.3912L28.1822 88.8947V121.8H32.0535V125.8H26.7744V87.3912ZM28.1822 69.8376V56.1847L26.7744 54.6402V68.3102L28.1822 69.8376ZM38.8999 130.014H40.3077V153.029H38.8999V130.014ZM45.603 130.014H47.0108V153.029H45.603V130.014ZM53.6973 130.014H52.2896V153.029H53.6973V130.014ZM58.9766 130.014H60.3843V153.029H58.9766V130.014ZM67.0869 130.014H65.6792V153.029H67.0869V130.014ZM72.3662 130.014H73.774V153.029H72.3662V130.014ZM80.4766 130.014H79.0688V153.029H80.4766V130.014ZM85.7559 130.014H87.1636V153.029H85.7559V130.014ZM93.8662 130.014H92.4585V153.029H93.8662V130.014ZM52.7854 15.9257C53.2536 15.9257 53.6332 15.5455 53.6332 15.0764C53.6332 14.6073 53.2536 14.2271 52.7854 14.2271C52.3171 14.2271 51.9375 14.6073 51.9375 15.0764C51.9375 15.5455 52.3171 15.9257 52.7854 15.9257ZM56.9764 19.4991C56.9764 18.6497 57.4083 18.201 58.0802 18.201C58.7521 18.201 59.136 18.6497 59.136 19.4991V23.0726H60.9277V19.5311C60.9277 18.6818 61.3596 18.2331 62.0315 18.2331C62.7034 18.2331 63.0873 18.6658 63.0553 19.5151V23.0566H64.847V18.9222C64.847 17.3998 64.0631 16.5825 62.7193 16.5825C61.8395 16.5825 61.1996 16.9351 60.6397 17.5921C60.3038 16.9351 59.6799 16.5825 58.848 16.5825C57.9522 16.5825 57.3923 17.0472 56.9924 17.5921C56.9924 17.0953 56.5924 16.6947 56.0965 16.6947H55.2007V23.0566H56.9924V19.4991H56.9764ZM70.8939 23.9863V27.4477C70.4619 26.7747 69.7741 26.1657 68.7023 26.1657C67.4225 26.1657 66.0947 27.2234 66.0947 28.9701V28.9861C66.0947 30.7328 67.3905 31.7745 68.7023 31.7745C69.7581 31.7745 70.4299 31.1495 70.8939 30.4444V31.2136C70.8939 31.502 71.1178 31.7264 71.4058 31.7264V24.4991C71.4218 24.2107 71.1978 23.9863 70.8939 23.9863ZM70.9259 28.9701C70.9259 30.3322 69.8701 31.2777 68.7502 31.2777C67.6304 31.2777 66.6386 30.3803 66.6386 28.9701V28.954C66.6386 27.5118 67.5825 26.6625 68.7502 26.6625C69.854 26.6625 70.9259 27.5759 70.9259 28.9701ZM48.0819 26.1658C47.0261 26.1658 46.3542 26.7908 45.8903 27.4959V24.5153C45.8903 24.2268 45.6664 24.0024 45.3784 24.0024V31.1656C45.3784 31.454 45.6024 31.6784 45.8903 31.6784V30.5086C46.3223 31.1816 47.0101 31.7906 48.0819 31.7906C49.3617 31.7906 50.6895 30.7329 50.6895 28.9862C50.6895 27.2395 49.3617 26.1658 48.0819 26.1658ZM50.1136 29.0182C50.1136 30.4605 49.1697 31.3098 48.002 31.3098C46.8981 31.3098 45.8263 30.3644 45.8263 29.0023V28.9862C45.8263 27.6241 46.8822 26.6786 48.002 26.6786C49.1217 26.6786 50.1136 27.56 50.1136 29.0182ZM63.631 27.8163V26.8067C63.631 26.5182 63.4071 26.2939 63.1191 26.2939V31.6783H63.631V29.4829C63.631 27.9766 64.4149 27.0792 65.4227 26.8548C65.4387 26.8387 65.4707 26.8387 65.4867 26.8387C65.9186 26.7426 65.9826 26.4862 65.9986 26.326V26.2138C64.9588 26.1657 64.063 26.8548 63.631 27.8163ZM59.6961 26.1816C58.9602 26.1816 58.3683 26.39 57.7924 26.6464C57.8884 26.8867 58.1443 26.9989 58.4003 26.9188C58.7842 26.7585 59.1842 26.6784 59.6481 26.6784C60.7519 26.6784 61.4238 27.2393 61.4238 28.313V28.5373C60.9119 28.4091 60.3999 28.313 59.6481 28.313C58.2883 28.313 57.3125 28.9379 57.3125 30.0597V30.1078C57.3125 31.2295 58.3843 31.7904 59.3761 31.7904C60.384 31.7904 61.0558 31.2936 61.4238 30.7808V31.1654C61.4238 31.4378 61.6477 31.6622 61.9197 31.6622V28.2809C61.9197 27.6239 61.7437 27.1431 61.3758 26.7745C60.9919 26.39 60.416 26.1816 59.6961 26.1816ZM61.3918 29.643C61.3918 30.6366 60.4799 31.3096 59.3761 31.3096C58.5763 31.3096 57.8244 30.861 57.8244 30.0597C57.8244 29.3225 58.4483 28.8098 59.5681 28.8098C60.336 28.8098 60.9279 28.9379 61.3918 29.0501V29.643ZM67.7585 23.1528C68.6384 23.1528 69.2142 22.8323 69.6622 22.3516C69.6622 22.7362 69.9821 23.0406 70.35 23.0406H71.4059V19.3389C71.4059 18.4896 71.1819 17.7845 70.718 17.3198C70.2701 16.871 69.5822 16.5986 68.5904 16.5986C67.5185 16.5986 66.8147 16.8069 66.1268 17.1115L66.2388 17.4479C66.4147 17.9928 66.9586 18.3293 67.5185 18.2172C67.7585 18.1691 68.0305 18.1531 68.3184 18.1531C69.2142 18.1531 69.6782 18.5858 69.6782 19.3229V19.4351C69.2302 19.2748 68.7663 19.1627 68.1264 19.1627C66.6227 19.1627 65.5669 19.7876 65.5669 21.1818V21.1978C65.5829 22.4637 66.5747 23.1528 67.7585 23.1528ZM67.3426 21.1337C67.3426 20.5728 67.8065 20.2523 68.5744 20.2523C68.8623 20.2523 69.1343 20.3004 69.3742 20.3645C69.5822 20.4126 69.7102 20.5889 69.7262 20.7972C69.7262 21.4542 69.1503 21.9189 68.3184 21.9189C67.7425 21.9189 67.3426 21.6465 67.3426 21.1337ZM54.0168 31.7743C55.6005 31.7743 56.7683 30.4763 56.7683 28.9699C56.7683 27.4475 55.6325 26.1655 54.0328 26.1655C52.449 26.1655 51.2812 27.4636 51.2812 28.9699V28.9859C51.2812 30.4922 52.433 31.7743 54.0168 31.7743ZM51.8412 28.9539C51.8412 27.7039 52.737 26.6623 54.0168 26.6623C55.2486 26.6623 56.2084 27.6879 56.2084 28.9539V28.9699C56.2084 30.2519 55.3125 31.2775 54.0328 31.2775C52.817 31.2775 51.8412 30.2679 51.8412 28.9539ZM50.7534 21.5823L47.442 21.5663L49.8895 18.8741C50.4335 18.2652 50.7374 17.48 50.7374 16.6787H45.3144V18.137H48.4978L46.0342 20.8773C45.5223 21.4542 45.2344 22.2073 45.2344 22.9926V23.0566H50.7534V21.5823ZM53.7292 17.7685C53.7292 17.1595 53.2333 16.6948 52.6574 16.6948H51.9375V23.0568H53.7292V17.7685Z" fill="#E4E8EC"/>
</svg>
