<svg width="90" height="90" viewBox="0 0 90 90" fill="none" xmlns="http://www.w3.org/2000/svg">
<path opacity="0.4" fill-rule="evenodd" clip-rule="evenodd" d="M89.3584 26.6266C87.016 20.9651 83.5437 15.661 78.9416 11.0589C74.3395 6.45674 69.0353 2.98448 63.3739 0.64209L62.6093 2.49016C68.032 4.7338 73.1144 8.0601 77.5274 12.4731C81.9404 16.8861 85.2667 21.9684 87.5103 27.3912L89.3584 26.6266ZM89.3584 63.3734L87.5103 62.6088C85.2667 68.0316 81.9404 73.1139 77.5274 77.5269C73.1144 81.9399 68.032 85.2662 62.6093 87.5098L63.3739 89.3579C69.0353 87.0155 74.3395 83.5432 78.9416 78.9411C83.5437 74.339 87.016 69.0349 89.3584 63.3734ZM26.6271 89.3579L27.3917 87.5098C21.9689 85.2662 16.8866 81.9399 12.4736 77.5269C8.06059 73.1139 4.73429 68.0316 2.49065 62.6088L0.64258 63.3734C2.98497 69.0349 6.45723 74.339 11.0594 78.9411C15.6615 83.5432 20.9656 87.0155 26.6271 89.3579ZM0.642578 26.6266C2.98497 20.9651 6.45723 15.661 11.0594 11.0589C15.6615 6.45674 20.9656 2.98448 26.6271 0.642094L27.3917 2.49016C21.9689 4.7338 16.8865 8.06011 12.4736 12.4731C8.06059 16.8861 4.73429 21.9684 2.49064 27.3912L0.642578 26.6266Z" fill="#E4E8EC"/>
</svg>
