<svg width="82" height="82" viewBox="0 0 82 82" fill="none" xmlns="http://www.w3.org/2000/svg">
<path d="M71.1494 57.3583C69.5088 61.0021 68.7182 62.6308 66.608 65.8467C63.6537 70.3405 59.4868 75.9519 54.3391 75.9875C49.7561 76.0292 48.5732 72.9976 42.3496 73.0511C36.1319 73.0808 34.836 76.047 30.2471 75.9994C25.0934 75.9519 21.1524 70.8993 18.1981 66.4114C9.93558 53.8274 9.06178 39.0738 14.1679 31.2274C17.782 25.6636 23.4944 22.3942 28.8621 22.3942C34.3308 22.3942 37.7665 25.3961 42.2842 25.3961C46.671 25.3961 49.34 22.3883 55.6647 22.3883C60.4438 22.3883 65.4964 24.9919 69.1105 29.4857C57.2934 35.9649 59.2134 52.8407 71.1494 57.3583ZM50.8617 17.3654C53.1621 14.4111 54.9097 10.2442 54.2737 6C50.5229 6.2556 46.136 8.65113 43.5741 11.754C41.2499 14.5835 39.3239 18.7801 40.0729 22.84C44.1685 22.9708 48.4067 20.5277 50.8617 17.3654Z" fill="#E4E8EC"/>
</svg>
