<svg width="464" height="260" viewBox="0 0 464 260" fill="none" xmlns="http://www.w3.org/2000/svg">
<path d="M153 248H211L209 250H151L153 248Z" fill="#E4E8EC"/>
<path d="M252 248H214L212 250H250L252 248Z" fill="#E4E8EC"/>
<path d="M255 248H311L313 250H253L255 248Z" fill="#E4E8EC"/>
<path d="M148.5 248H114V256H140.5L148.5 248Z" fill="#E4E8EC"/>
<path d="M112 248H92V256H112V248Z" fill="#E4E8EC"/>
<path d="M70 248H90V256H70V248Z" fill="#E4E8EC"/>
<path d="M68 248H48V256H68V248Z" fill="#E4E8EC"/>
<path d="M26 248H46V256H26V248Z" fill="#E4E8EC"/>
<path d="M24 248H4V256H24V248Z" fill="#E4E8EC"/>
<path d="M315.5 248H350V256H323.5L315.5 248Z" fill="#E4E8EC"/>
<path d="M352 248H372V256H352V248Z" fill="#E4E8EC"/>
<path d="M394 248H374V256H394V248Z" fill="#E4E8EC"/>
<path d="M396 248H416V256H396V248Z" fill="#E4E8EC"/>
<path d="M438 248H418V256H438V248Z" fill="#E4E8EC"/>
<path d="M440 248L458 248V189L460 190V256H440V248Z" fill="#E4E8EC"/>
<path fill-rule="evenodd" clip-rule="evenodd" d="M152 8L144 0H16L0 16V260H143L151 252H313L321 260H464V188L453 182V79L464 73V0H322L314 8H152ZM322.414 1L314.414 9H151.586L143.586 1H16.4142L1 16.4142V259H142.586L150.586 251H313.414L321.414 259H463V188.594L452 182.594V78.4064L463 72.4064V1H322.414Z" fill="#E4E8EC"/>
</svg>
