<svg width="480" height="264" viewBox="0 0 480 264" fill="none" xmlns="http://www.w3.org/2000/svg">
<path d="M327 252H269L271 254H329L327 252Z" fill="#E4E8EC"/>
<path d="M212 252H266L268 254H214L212 252Z" fill="#E4E8EC"/>
<path d="M209 252H153L151 254H211L209 252Z" fill="#E4E8EC"/>
<path d="M331.5 252H366V260H339.5L331.5 252Z" fill="#E4E8EC"/>
<path d="M368 252H388V260H368V252Z" fill="#E4E8EC"/>
<path d="M410 252H390V260H410V252Z" fill="#E4E8EC"/>
<path d="M412 252H432V260H412V252Z" fill="#E4E8EC"/>
<path d="M454 252H434V260H454V252Z" fill="#E4E8EC"/>
<path d="M456 252H476V260H456V252Z" fill="#E4E8EC"/>
<path d="M148.5 252H114V260H140.5L148.5 252Z" fill="#E4E8EC"/>
<path d="M112 252H92V260H112V252Z" fill="#E4E8EC"/>
<path d="M70 252H90V260H70V252Z" fill="#E4E8EC"/>
<path d="M68 252H48V260H68V252Z" fill="#E4E8EC"/>
<path d="M26 252H46V260H26V252Z" fill="#E4E8EC"/>
<path d="M24 252H6V193L4 194V260H24V252Z" fill="#E4E8EC"/>
<path fill-rule="evenodd" clip-rule="evenodd" d="M328 8L336 0H464L480 16V264H337L329 256H151L143 264H0V192L11 186V79L0 73V0H142L150 8H328ZM141.586 1L149.586 9H328.414L336.414 1H463.586L479 16.4142V263H337.414L329.414 255H150.586L142.586 263H1V192.594L12 186.594V78.4064L1 72.4064V1H141.586Z" fill="#E4E8EC"/>
</svg>
