<svg width="784" height="322" viewBox="0 0 784 322" fill="none" xmlns="http://www.w3.org/2000/svg">
<path d="M219 310H277L275 312H217L219 310Z" fill="#E4E8EC"/>
<path d="M338 310H280L278 312H336L338 310Z" fill="#E4E8EC"/>
<path d="M341 310H444L442 312H339L341 310Z" fill="#E4E8EC"/>
<path d="M505 310H447L445 312H503L505 310Z" fill="#E4E8EC"/>
<path d="M508 310H564L566 312H506L508 310Z" fill="#E4E8EC"/>
<path d="M214.5 310H180V318H206.5L214.5 310Z" fill="#E4E8EC"/>
<path d="M112 310H92V318H112V310Z" fill="#E4E8EC"/>
<path d="M114 310H134V318H114V310Z" fill="#E4E8EC"/>
<path d="M156 310H136V318H156V310Z" fill="#E4E8EC"/>
<path d="M158 310H178V318H158V310Z" fill="#E4E8EC"/>
<path d="M90 310H70V318H90V310Z" fill="#E4E8EC"/>
<path d="M48 310H68V318H48V310Z" fill="#E4E8EC"/>
<path d="M46 310H26V318H46V310Z" fill="#E4E8EC"/>
<path d="M4 310H24V318H4V310Z" fill="#E4E8EC"/>
<path d="M603.5 310H569L577 318H603.5V310Z" fill="#E4E8EC"/>
<path d="M692 310H672V318H692V310Z" fill="#E4E8EC"/>
<path d="M650 310H670V318H650V310Z" fill="#E4E8EC"/>
<path d="M648 310H628V318H648V310Z" fill="#E4E8EC"/>
<path d="M606 310H626V318H606V310Z" fill="#E4E8EC"/>
<path d="M714 310H694V318H714V310Z" fill="#E4E8EC"/>
<path d="M716 310H736V318H716V310Z" fill="#E4E8EC"/>
<path d="M758 310H738V318H758V310Z" fill="#E4E8EC"/>
<path d="M760 310L778 310V251L780 252V318H760V310Z" fill="#E4E8EC"/>
<path fill-rule="evenodd" clip-rule="evenodd" d="M142 8L134 0H16L0 16V322H208L216 314H568L576 322H784V250L773 244V79L784 73V0H650L642 8H142ZM650.414 1L642.414 9H141.586L133.586 1H16.4142L1 16.4142V321H207.586L215.586 313H568.414L576.414 321H783V250.594L772 244.594V78.4064L783 72.4063V1H650.414Z" fill="#E4E8EC"/>
</svg>
