<svg width="480" height="264" viewBox="0 0 480 264" fill="none" xmlns="http://www.w3.org/2000/svg">
<path d="M209 254L211 252H153L151 254H209Z" fill="#D9D9D9"/>
<path d="M214 252H366V260H339.5L333.5 254H212L214 252Z" fill="#D9D9D9"/>
<path d="M114 252H148.5L140.5 260H114V252Z" fill="#D9D9D9"/>
<path d="M92 252H112V260H92V252Z" fill="#D9D9D9"/>
<path d="M90 252H70V260H90V252Z" fill="#D9D9D9"/>
<path d="M48 252H68V260H48V252Z" fill="#D9D9D9"/>
<path d="M46 252H26V260H46V252Z" fill="#D9D9D9"/>
<path d="M4 252H24V260H4V252Z" fill="#D9D9D9"/>
<path d="M388 252H368V260H388V252Z" fill="#D9D9D9"/>
<path d="M390 252H410V260H390V252Z" fill="#D9D9D9"/>
<path d="M432 252H412V260H432V252Z" fill="#D9D9D9"/>
<path d="M434 252H454V260H434V252Z" fill="#D9D9D9"/>
<path d="M474 252H456V260H476V194L474 193V252Z" fill="#D9D9D9"/>
<path fill-rule="evenodd" clip-rule="evenodd" d="M144 0L152 8H330L338 0H480V73L469 79V186L480 192V264H337L329 256H151L143 264H0V16L16 0H144ZM330.414 9L338.414 1H479V72.4064L468 78.4064V186.594L479 192.594V263H337.414L329.414 255H150.586L142.586 263H1V16.4142L16.4142 1H143.586L151.586 9H330.414Z" fill="#D9D9D9"/>
</svg>
