<svg width="120" height="160" viewBox="0 0 120 160" fill="none" xmlns="http://www.w3.org/2000/svg">
<path d="M5 29H115V32H113V31H7V32H5V29Z" fill="#E4E8EC"/>
<path d="M5 33H115V36H113V35H7V36H5V33Z" fill="#E4E8EC"/>
<path d="M115 37H5V40H7V39H113V40H115V37Z" fill="#E4E8EC"/>
<path d="M5 41H115V44H113V43H7V44H5V41Z" fill="#E4E8EC"/>
<path d="M115 45H5V48H7V47H113V48H115V45Z" fill="#E4E8EC"/>
<path d="M5 49H115V52H113V51H7V52H5V49Z" fill="#E4E8EC"/>
<path d="M115 77H5V80H7V79H113V80H115V77Z" fill="#E4E8EC"/>
<path d="M5 81H115V84H113V83H7V84H5V81Z" fill="#E4E8EC"/>
<path d="M115 85H5V88H7V87H113V88H115V85Z" fill="#E4E8EC"/>
<path d="M5 89H115V92H113V91H7V92H5V89Z" fill="#E4E8EC"/>
<path d="M115 93H5V96H7V95H113V96H115V93Z" fill="#E4E8EC"/>
<path d="M5 97H115V100H113V99H7V100H5V97Z" fill="#E4E8EC"/>
<path d="M115 101H5V104H7V103H113V104H115V101Z" fill="#E4E8EC"/>
<path d="M5 105H115V108H113V107H7V108H5V105Z" fill="#E4E8EC"/>
<path d="M115 109H5V112H7V111H113V112H115V109Z" fill="#E4E8EC"/>
<path d="M5 113H115V116H113V115H7V116H5V113Z" fill="#E4E8EC"/>
<path d="M115 117H5V120H7V119H113V120H115V117Z" fill="#E4E8EC"/>
<path d="M5 121H115V124H113V123H7V124H5V121Z" fill="#E4E8EC"/>
<path d="M115 125H5V128H7V127H113V128H115V125Z" fill="#E4E8EC"/>
<path d="M5 129H115V132H113V131H7V132H5V129Z" fill="#E4E8EC"/>
<path d="M5 53H115V55H5V53Z" fill="#E4E8EC"/>
<path fill-rule="evenodd" clip-rule="evenodd" d="M39.2 64.8H30.8V67.2H39.2V64.8ZM31.3 65.2998H38.7001V66.2998H37.9003V66.5H36.9003V66.2998H36.3002V66.5H35.3002V66.2998H34.7001V66.5H33.7001V66.2998H33.1V66.5H32.1V66.2998H31.3V65.2998Z" fill="#E4E8EC"/>
<path fill-rule="evenodd" clip-rule="evenodd" d="M46.8 64.8H55.2V67.2H46.8V64.8ZM47.3 65.2998H54.7001V66.2998H53.9003V66.5H52.9003V66.2998H52.3002V66.5H51.3002V66.2998H50.7001V66.5H49.7001V66.2998H49.1V66.5H48.1V66.2998H47.3V65.2998Z" fill="#E4E8EC"/>
<path d="M76.5 67.7C75.5611 67.7 74.8 66.9389 74.8 66C74.8 65.0611 75.5611 64.3 76.5 64.3C77.4389 64.3 78.2 65.0611 78.2 66C78.2 66.9389 77.4389 67.7 76.5 67.7Z" fill="#E4E8EC"/>
<path d="M66.5 65.3H63.5C63.1134 65.3 62.8 65.6134 62.8 66C62.8 66.3866 63.1134 66.7 63.5 66.7H66.5C66.8866 66.7 67.2 66.3866 67.2 66C67.2 65.6134 66.8866 65.3 66.5 65.3Z" fill="#E4E8EC"/>
<path fill-rule="evenodd" clip-rule="evenodd" d="M5 56H115V76H5V56ZM30 64V68H40V64H30ZM46 68V64H56V68H46ZM74 66C74 64.6193 75.1193 63.5 76.5 63.5C77.8807 63.5 79 64.6193 79 66C79 67.3807 77.8807 68.5 76.5 68.5C75.1193 68.5 74 67.3807 74 66ZM62 66C62 65.1716 62.6716 64.5 63.5 64.5H66.5C67.3284 64.5 68 65.1716 68 66C68 66.8284 67.3284 67.5 66.5 67.5H63.5C62.6716 67.5 62 66.8284 62 66Z" fill="#E4E8EC"/>
<path fill-rule="evenodd" clip-rule="evenodd" d="M2 26V134H12V135H16V134H104V135H108V134H118V26H2ZM116.6 27.4H3.4V132.6H116.6V27.4Z" fill="#E4E8EC"/>
<rect x="85" y="63.5" width="5" height="5" rx="2.5" fill="white"/>
<path fill-rule="evenodd" clip-rule="evenodd" d="M86.2 66C86.2 66.718 86.782 67.3 87.5 67.3C88.218 67.3 88.8 66.718 88.8 66C88.8 65.282 88.218 64.7 87.5 64.7C86.782 64.7 86.2 65.282 86.2 66ZM87.5 64.5C86.6716 64.5 86 65.1716 86 66C86 66.8284 86.6716 67.5 87.5 67.5C88.3284 67.5 89 66.8284 89 66C89 65.1716 88.3284 64.5 87.5 64.5Z" fill="#464647"/>
</svg>
